<?xml version="1.0" encoding="UTF-8" standalone="no"?>
<!-- Created with Inkscape (http://www.inkscape.org/) -->

<svg
   xmlns:dc="http://purl.org/dc/elements/1.1/"
   xmlns:cc="http://creativecommons.org/ns#"
   xmlns:rdf="http://www.w3.org/1999/02/22-rdf-syntax-ns#"
   xmlns:svg="http://www.w3.org/2000/svg"
   xmlns="http://www.w3.org/2000/svg"
   xmlns:sodipodi="http://sodipodi.sourceforge.net/DTD/sodipodi-0.dtd"
   xmlns:inkscape="http://www.inkscape.org/namespaces/inkscape"
   width="200.29813mm"
   height="69.157875mm"
   viewBox="0 0 709.71777 245.04759"
   id="svg2"
   version="1.1"
   inkscape:version="0.91 r13725"
   sodipodi:docname="AntiprotonProductionFrame.svg">
  <sodipodi:namedview
     id="base"
     pagecolor="#ffffff"
     bordercolor="#666666"
     borderopacity="1.0"
     inkscape:pageopacity="0.0"
     inkscape:pageshadow="2"
     inkscape:zoom="1.4"
     inkscape:cx="392.07214"
     inkscape:cy="178.53343"
     inkscape:document-units="px"
     inkscape:current-layer="layer1"
     showgrid="false"
     fit-margin-top="0"
     fit-margin-left="0"
     fit-margin-right="0"
     fit-margin-bottom="0"
     inkscape:window-width="1890"
     inkscape:window-height="1051"
     inkscape:window-x="1080"
     inkscape:window-y="840"
     inkscape:window-maximized="1" />
  <defs
     id="defs4">
    <clipPath
       id="clipPath16030"
       clipPathUnits="userSpaceOnUse">
      <rect
         y="-603.4234"
         x="1165.5736"
         height="488.04803"
         width="568.43243"
         id="rect16032"
         style="fill:#0000ff;fill-rule:evenodd;stroke:#000000;stroke-width:1px;stroke-linecap:butt;stroke-linejoin:miter;stroke-opacity:1" />
    </clipPath>
    <inkscape:path-effect
       maxComplexity="1000"
       drawall="true"
       nbgenerations="3"
       similar_only="false"
       generator="m 633.63757,2461.8145 35.41106,0 m 35.41106,0 35.41106,0"
       ref_path="m 633.63757,2410.9495 106.23318,0"
       is_visible="true"
       id="path-effect17403"
       effect="vonkoch" />
    <inkscape:path-effect
       fuse_tolerance="0"
       vertical_pattern="false"
       prop_units="false"
       tang_offset="0"
       normal_offset="0"
       spacing="0"
       scale_y_rel="false"
       prop_scale="1"
       copytype="single_stretched"
       pattern="M 0,0 1,0"
       is_visible="true"
       id="path-effect17401"
       effect="skeletal" />
    <inkscape:path-effect
       back_thickness="0.25"
       front_thickness="1"
       stroke_width_bottom="1"
       stroke_width_top="1"
       fat_output="true"
       bottom_smth_variation="0;1"
       top_smth_variation="0;1"
       scale_tb="1"
       scale_tf="1"
       scale_bb="1"
       scale_bf="1"
       top_tgt_variation="0;1"
       bottom_tgt_variation="0;1"
       top_edge_variation="10.173;1"
       bottom_edge_variation="10.173;1"
       bender="686.75416,2410.9495 , 5,0"
       do_bend="true"
       growth="0"
       dist_rdm="75;1"
       direction="686.75416,2405.9495 , 26.558294,0"
       is_visible="true"
       id="path-effect17399"
       effect="rough_hatches" />
    <marker
       inkscape:isstock="true"
       style="overflow:visible"
       id="Arrow1Lstart"
       refX="0"
       refY="0"
       orient="auto"
       inkscape:stockid="Arrow1Lstart">
      <path
         inkscape:connector-curvature="0"
         transform="matrix(0.8,0,0,0.8,10,0)"
         style="fill-rule:evenodd;stroke:#000000;stroke-width:1pt"
         d="M 0,0 5,-5 -12.5,0 5,5 0,0 Z"
         id="path17135" />
    </marker>
    <clipPath
       clipPathUnits="userSpaceOnUse"
       id="clipPath4638">
      <rect
         style="color:#000000;clip-rule:nonzero;display:inline;overflow:visible;visibility:visible;opacity:0.35400008;isolation:auto;mix-blend-mode:normal;color-interpolation:sRGB;color-interpolation-filters:linearRGB;solid-color:#000000;solid-opacity:1;fill:#5170bb;fill-opacity:1;fill-rule:nonzero;stroke:#000000;stroke-width:0.71749556;stroke-linecap:butt;stroke-linejoin:miter;stroke-miterlimit:0.60000002;stroke-dasharray:2.86998232, 1.43499116;stroke-dashoffset:0;stroke-opacity:1;color-rendering:auto;image-rendering:auto;shape-rendering:auto;text-rendering:auto;enable-background:accumulate"
         id="rect4640"
         width="192.55708"
         height="283.54965"
         x="95.594368"
         y="775.96429" />
    </clipPath>
    <clipPath
       clipPathUnits="userSpaceOnUse"
       id="clipPath4642">
      <rect
         y="1904.5776"
         x="78.493279"
         height="312.03738"
         width="218.18765"
         id="rect4644"
         style="color:#000000;clip-rule:nonzero;display:inline;overflow:visible;visibility:visible;opacity:0.35400008;isolation:auto;mix-blend-mode:normal;color-interpolation:sRGB;color-interpolation-filters:linearRGB;solid-color:#000000;solid-opacity:1;fill:#5170bb;fill-opacity:1;fill-rule:nonzero;stroke:#000000;stroke-width:0.80120438;stroke-linecap:butt;stroke-linejoin:miter;stroke-miterlimit:0.60000002;stroke-dasharray:3.20481755, 1.60240878;stroke-dashoffset:0;stroke-opacity:1;color-rendering:auto;image-rendering:auto;shape-rendering:auto;text-rendering:auto;enable-background:accumulate" />
    </clipPath>
  </defs>
  <metadata
     id="metadata7">
    <rdf:RDF>
      <cc:Work
         rdf:about="">
        <dc:format>image/svg+xml</dc:format>
        <dc:type
           rdf:resource="http://purl.org/dc/dcmitype/StillImage" />
        <dc:title></dc:title>
      </cc:Work>
    </rdf:RDF>
  </metadata>
  <g
     inkscape:groupmode="layer"
     id="layer2"
     inkscape:label="bg"
     transform="translate(-16.877245,-22.721413)"
     sodipodi:insensitive="true">
    <rect
       style="color:#000000;clip-rule:nonzero;display:inline;overflow:visible;visibility:visible;opacity:1;isolation:auto;mix-blend-mode:normal;color-interpolation:sRGB;color-interpolation-filters:linearRGB;solid-color:#000000;solid-opacity:1;fill:#ffffff;fill-opacity:1;fill-rule:nonzero;stroke:#ffffff;stroke-width:2.61100006;stroke-linecap:butt;stroke-linejoin:miter;stroke-miterlimit:10;stroke-dasharray:none;stroke-dashoffset:0;stroke-opacity:1;color-rendering:auto;image-rendering:auto;shape-rendering:auto;text-rendering:auto;enable-background:accumulate"
       id="rect4239"
       width="707.10675"
       height="242.4366"
       x="18.182745"
       y="24.026913" />
  </g>
  <g
     inkscape:label="Layer 1"
     inkscape:groupmode="layer"
     id="layer1"
     transform="translate(-16.877245,-22.721413)">
    <text
       xml:space="preserve"
       style="font-style:normal;font-variant:normal;font-weight:500;font-stretch:normal;font-size:40px;line-height:89.99999762%;font-family:'Sans Guilt MB';-inkscape-font-specification:'Sans Guilt MB, Medium';text-align:start;letter-spacing:0px;word-spacing:0px;writing-mode:lr-tb;text-anchor:start;fill:#000000;fill-opacity:1;stroke:none;stroke-width:1px;stroke-linecap:butt;stroke-linejoin:miter;stroke-opacity:1"
       x="235.57018"
       y="254.91187"
       id="text4425"
       sodipodi:linespacing="89.999998%"><tspan
         sodipodi:role="line"
         id="tspan4427"
         x="235.57018"
         y="254.91187">Lab Frame</tspan></text>
    <text
       sodipodi:linespacing="89.999998%"
       id="text4429"
       y="254.91187"
       x="414.02014"
       style="font-style:normal;font-variant:normal;font-weight:500;font-stretch:normal;font-size:40px;line-height:89.99999762%;font-family:'Sans Guilt MB';-inkscape-font-specification:'Sans Guilt MB, Medium';text-align:start;letter-spacing:0px;word-spacing:0px;writing-mode:lr-tb;text-anchor:start;fill:#000000;fill-opacity:1;stroke:none;stroke-width:1px;stroke-linecap:butt;stroke-linejoin:miter;stroke-opacity:1"
       xml:space="preserve"><tspan
         y="254.91187"
         x="414.02014"
         id="tspan4431"
         sodipodi:role="line">Centre of Mass Frame</tspan></text>
    <path
       style="fill:none;fill-rule:evenodd;stroke:#000000;stroke-width:0.87099999;stroke-linecap:butt;stroke-linejoin:miter;stroke-miterlimit:4;stroke-dasharray:6.96799994, 3.48399997;stroke-dashoffset:0;stroke-opacity:1"
       d="m 392.79023,53.217161 0,195.714269"
       id="path4718"
       inkscape:connector-curvature="0"
       sodipodi:nodetypes="cc" />
    <g
       id="g5047"
       transform="matrix(0.9025,0,0,0.9025,36.021695,24.634736)">
      <path
         sodipodi:open="true"
         d="M 226.3919,167.01741 A 58.690636,59.22419 0 0 1 185.85104,190.036 58.690636,59.22419 0 0 1 141.44451,176.05466"
         sodipodi:end="2.2807169"
         sodipodi:start="0.65079575"
         sodipodi:ry="59.22419"
         sodipodi:rx="58.690636"
         sodipodi:cy="131.13823"
         sodipodi:cx="179.69751"
         sodipodi:type="arc"
         id="path4458"
         style="color:#000000;clip-rule:nonzero;display:inline;overflow:visible;visibility:visible;opacity:1;isolation:auto;mix-blend-mode:normal;color-interpolation:sRGB;color-interpolation-filters:linearRGB;solid-color:#000000;solid-opacity:1;fill:none;fill-opacity:1;fill-rule:nonzero;stroke:#000000;stroke-width:1.40999997;stroke-linecap:butt;stroke-linejoin:miter;stroke-miterlimit:0.60000002;stroke-dasharray:5.63999987, 2.81999993;stroke-dashoffset:0;stroke-opacity:1;color-rendering:auto;image-rendering:auto;shape-rendering:auto;text-rendering:auto;enable-background:accumulate" />
      <g
         transform="matrix(0.88835299,0,0,0.88835299,-52.517474,-45.923446)"
         id="g4435">
        <path
           style="fill:#000000"
           d="m 260.39468,202.9748 c -57.70194,-49.06812 -40.13427,-29.75259 6.93561,-0.60256 1.86688,1.13436 4.85369,4.64229 6.6725,5.85223 4.12521,2.74421 4.604,2.49992 10.32953,6.86941 10.88336,8.0144 16.61424,14.23333 27.24809,22.59608 2.06241,2.92845 23.05032,17.08557 23.29896,20.91013 -0.78683,6.03038 -11.57926,-3.80879 -13.47814,-6.53818 -12.59206,-10.79705 -31.89403,-26.53875 -44.95323,-36.76393 -5.31149,-4.15883 -10.63296,-8.30728 -16.05332,-12.32318 z"
           id="path4433"
           inkscape:connector-curvature="0"
           sodipodi:nodetypes="ccsccccsc"
           inkscape:transform-center-x="-42.594222"
           inkscape:transform-center-y="32.473956" />
        <path
           style="fill:none;fill-opacity:1;fill-rule:evenodd;stroke:#ffffff;stroke-width:6.95749998;stroke-linecap:butt;stroke-linejoin:miter;stroke-miterlimit:0.60000002;stroke-dasharray:3.47875, 3.47875;stroke-dashoffset:0;stroke-opacity:1"
           d="m 245.44046,187.03687 84.25813,68.3308"
           id="path4716"
           inkscape:connector-curvature="0"
           sodipodi:nodetypes="cc"
           inkscape:transform-center-y="61.42526"
           inkscape:transform-center-x="-79.363045" />
      </g>
      <path
         inkscape:transform-center-y="45.909808"
         inkscape:transform-center-x="-55.811568"
         style="fill:#bb5151;fill-opacity:1"
         d="m 107.37052,88.119167 c -1.15276,-1.87042 -0.27736,-3.27281 0.8573,-3.92349 2.62181,-1.50348 1.59539,-1.29681 -0.89289,-3.49588 C 97.658788,73.310717 87.647288,66.250647 77.137913,60.104286 69.309963,55.155952 61.15906,50.457542 54.362897,44.089795 c -2.849076,-2.615064 0.730625,-9.008758 3.086472,-3.642788 4.586249,4.589298 10.689874,7.794819 15.979794,11.745871 5.90589,3.037486 11.35541,7.040045 17.001495,10.567545 8.11614,5.443884 16.071092,11.208344 23.824932,17.184204 0.20309,-0.24006 -0.29332,-1.93609 -0.16075,-3.40065 0.18861,-2.0835 1.19057,-3.99425 3.34779,-3.11472 2.75002,2.42126 2.87821,6.59471 5.57972,9.77618 2.70152,3.18147 2.69096,4.84094 8.51135,9.083261 11.05724,7.772742 21.6205,16.261062 32.43598,24.387562 2.12641,2.88232 7.23705,3.53417 7.56987,7.35233 -0.65381,6.04625 -6.36897,1.51042 -8.3275,-1.17648 -12.82683,-10.51707 -26.05394,-20.55698 -39.55626,-30.185702 -3.4588,-2.04081 -7.53098,-2.26736 -11.28906,-3.473941 -1.64937,-0.20646 -3.78853,0.398641 -4.99622,-1.07329 z"
         id="path16099"
         inkscape:connector-curvature="0"
         sodipodi:nodetypes="cscccccccsczccccccc" />
      <path
         inkscape:transform-center-y="19.33579"
         inkscape:transform-center-x="16.130669"
         sodipodi:nodetypes="cscccccccsczccccccc"
         inkscape:connector-curvature="0"
         id="path4388"
         d="m 151.4708,157.80103 c 1.50859,-0.71879 2.49749,0.0578 2.89676,0.96898 0.92258,2.10546 0.85021,1.31241 2.71649,-0.38941 6.37841,-6.71284 12.53545,-13.70616 18.04227,-21.15066 4.3817,-5.51482 8.60082,-11.29426 13.97149,-15.91282 2.21035,-1.94063 6.75248,1.2889 2.50229,2.63169 -3.84521,3.09287 -6.76809,7.44624 -10.1882,11.12337 -2.77965,4.21759 -6.25175,8.0112 -9.38071,11.99228 -4.77997,5.69221 -9.78919,11.23634 -14.94182,16.61111 0.16493,0.17319 1.488,-0.0635 2.58462,0.15643 1.56008,0.31293 2.92303,1.22678 2.08161,2.78612 -2.05569,1.88157 -5.22203,1.63735 -7.84861,3.4201 -2.62659,1.78275 -3.88059,1.63913 -7.5643,5.69356 -6.78143,7.72584 -14.06357,15.01965 -21.09274,22.53375 -2.35337,1.37233 -3.26405,5.18358 -6.17845,5.12314 -4.51858,-0.98865 -0.62152,-4.93953 1.57035,-6.20089 9.00128,-8.83961 17.67446,-18.02092 26.0592,-27.44395 1.82596,-2.44864 2.33014,-5.5094 3.54973,-8.25253 0.29094,-1.23035 0.008,-2.89738 1.22003,-3.69028 z"
         style="fill:#5170bb;fill-opacity:1" />
      <path
         style="fill:#5170bb;fill-opacity:1"
         d="m 236.96664,132.7113 c -1.54531,-0.63603 -1.63322,-1.89034 -1.22565,-2.79785 0.94177,-2.09694 0.4024,-1.51107 -2.11173,-1.75258 -9.25723,-0.22374 -18.57384,-0.0951 -27.78857,0.81831 -7.02905,0.45254 -14.14519,1.20322 -21.17349,0.3211 -2.92209,-0.33632 -3.57605,-5.87104 0.27176,-3.62124 4.87347,0.77509 10.06245,0.0205 15.08379,0.0883 4.9922,-0.7697 10.13479,-0.74149 15.18607,-1.0935 7.42785,-0.27633 14.89977,-0.28333 22.34238,-0.0703 0.0177,-0.23851 -1.0457,-1.06052 -1.61857,-2.02114 -0.81497,-1.3666 -1.05215,-2.99033 0.66856,-3.41301 2.77452,0.26131 4.7184,2.77262 7.80277,3.52348 3.08438,0.75085 3.81944,1.7769 9.29742,1.78695 10.27869,-0.15729 20.57313,0.34657 30.86111,0.51504 2.59674,0.82373 6.03343,-1.05886 7.94448,1.14234 2.29947,4.01341 -3.2449,3.7757 -5.65099,2.99722 -12.59415,-0.74098 -25.22144,-1.00939 -37.83437,-0.90175 -3.04073,0.28958 -5.64824,1.96987 -8.50037,2.90663 -1.10739,0.60998 -2.15356,1.93832 -3.5546,1.57208 z"
         id="path4390"
         inkscape:connector-curvature="0"
         sodipodi:nodetypes="cscccccccsczccccccc" />
      <g
         transform="matrix(1.2634561,0,0,1.263456,143.71385,104.90288)"
         id="g4235">
        <path
           sodipodi:nodetypes="sssssssscsssssssasccsssscc"
           inkscape:connector-curvature="0"
           id="path4325"
           d="m 12.6728,34.084273 c -1.00321,-1.10854 -1.94275,-2.84249 -2.08786,-3.85323 C 10.39935,28.938363 9.3096,28.296003 6.91055,28.065153 2.73079,27.662963 0,25.360423 0,22.238343 c 0,-2.39976 3.15084,-6.34501 5.06739,-6.34501 0.62462,0 2.91596,-1.74324 2.53118,-2.95554 -0.88113,-2.7762 3.30208,-4.2489601 5.09828,-4.9560701 1.40149,-0.55172 2.38681,0.0828 4.8245,-1.07243 1.82283,-0.86383 4.15882,-3.52714 5.03395,-3.28645 0.87513,0.2407 2.95751,-0.59708 4.19539,-0.24125 1.49059,0.42846 3.2313,-0.0513 5.15437,-1.42065 3.58918,-2.55572999 6.11001,-2.60269999 10.88478,-0.20281 2.04059,1.02563 5.64528,1.6905 7.71016,2.5342 6.42142,2.62378 6.8,4.9792 6.8,4.9792 0.62263,1.3678501 0.64676,3.0916201 -0.45933,4.2769501 -1.94749,2.087 -1.95463,2.24129 -0.22592,4.87963 0,0 0.2465,1.65095 0.10577,2.45932 -0.16276,0.93489 -1.07633,2.63553 -1.07633,2.63553 -1.51565,1.30371 -3.74312,2.43891 -4.94995,2.52268 -1.20683,0.0838 -2.67934,0.20365 -3.27223,0.26638 -0.5929,0.0627 -2.58614,1.38308 -4.42944,2.93411 -2.84944,2.39764 -4.03604,2.75882 -7.922,2.41129 -3.42147,-0.30598 -5.30177,0.0949 -7.47894,1.59444 -4.30322,2.96393 -12.57229,3.42531 -14.91883,0.83241 z M 21,9.1597529 c -14,17.7468381 -7,8.8734191 0,0 z"
           style="fill:#ffffff;fill-opacity:1" />
        <path
           style="fill:#ff0000;fill-opacity:1"
           d="m 12.6728,34.084273 c -1.00321,-1.10854 -1.94275,-2.84249 -2.08786,-3.85323 C 10.39935,28.938363 9.3096,28.296003 6.91055,28.065153 2.73079,27.662963 0,25.360423 0,22.238343 c 0,-2.39976 3.15084,-6.34501 5.06739,-6.34501 0.62462,0 2.91596,-1.74324 2.53118,-2.95554 -0.88113,-2.7762 3.30208,-4.2489601 5.09828,-4.9560701 1.40149,-0.55172 2.38681,0.0828 4.8245,-1.07243 1.82283,-0.86383 4.15882,-3.52714 5.03395,-3.28645 0.87513,0.2407 2.95751,-0.59708 4.19539,-0.24125 1.49059,0.42846 3.2313,-0.0513 5.15437,-1.42065 3.58918,-2.55572999 6.11001,-2.60269999 10.88478,-0.20281 2.04059,1.02563 5.64528,1.6905 7.71016,2.5342 6.42142,2.62378 6.8,4.9792 6.8,4.9792 0.62263,1.3678501 0.64676,3.0916201 -0.45933,4.2769501 -1.94749,2.087 -1.95463,2.24129 -0.22592,4.87963 0,0 0.2465,1.65095 0.10577,2.45932 -0.16276,0.93489 -1.07633,2.63553 -1.07633,2.63553 -1.51565,1.30371 -3.74312,2.43891 -4.94995,2.52268 -1.20683,0.0838 -2.67934,0.20365 -3.27223,0.26638 -0.5929,0.0627 -2.58614,1.38308 -4.42944,2.93411 -2.84944,2.39764 -4.03604,2.75882 -7.922,2.41129 -3.42147,-0.30598 -5.30177,0.0949 -7.47894,1.59444 -4.30322,2.96393 -12.57229,3.42531 -14.91883,0.83241 z m 12.32843,-4.34997 c 1.60613,-1.18746 2.68635,-2.53746 2.40049,-3 -0.72523,-1.17344 -5.15193,-1.05416 -5.90172,0.15903 -0.33992,0.55 -1.71648,1 -3.05902,1 -2.29809,0 -3.27409,1.83356 -1.77431,3.33333 1.34931,1.34931 5.49504,0.60699 8.33456,-1.49236 z M 32,26.428513 c 0,-2.97024 2.56531,-4.53518 7.43426,-4.53518 2.9369,0 3.56574,-0.36431 3.56574,-2.06574 0,-1.13616 0.44054,-2.88891 0.97899,-3.895 0.70477,-1.31688 0.58262,-2.1582 -0.43608,-3.00365 -2.04131,-1.69414 -5.52094,0.33239 -4.86667,2.83433 0.95394,3.64786 -10.09625,7.7333 -11.2165,4.06492 -1.04973,-3.43744 -1.3135,-0.4722 -2.55601,0.65226 -1.04374,0.94458 -3.13657,1.68574 -4.65072,1.64703 -1.51416,-0.0387 -4.10301,1.01554 -5.75301,2.34277 -3.54759,2.85362 -1.72666,3.25139 3.9762,0.86858 5.35323,-2.23673 10.93153,-1.59521 11.34335,1.3045 C 30.25162,29.685613 32,29.513373 32,26.428513 Z m 6.06574,0.42964 c 2.90192,-1.55306 2.36149,-3.10542 -0.81574,-2.3432 -3.40669,0.81727 -3.61049,0.98608 -2.79112,2.31185 0.81739,1.32256 1.18819,1.32578 3.60686,0.0314 z M 11.4349,22.918083 c 3.53009,-1.34214 3.36761,-4.02475 -0.24377,-4.02475 -3.38644,0 -6.77153,2.25187 -5.78489,3.8483 0.87023,1.40806 2.65212,1.46021 6.02866,0.17645 z m 40.41695,-1.91202 c 1.62884,-1.03218 -2.17199,-4.11273 -5.07436,-4.11273 -1.74373,0 -2.045836,3.171752 -1.11082,4.33333 1.293617,1.607072 4.56855,0.80383 6.18518,-0.2206 z m -29.12761,-2.78404 c 0.24807,-0.74511 -0.35856,-0.97557 -1.66714,-0.63337 -1.1314,0.29587 -2.0571,0.96845 -2.0571,1.49464 0,1.32759 3.24537,0.57706 3.72424,-0.86127 z m 12.5008,-1.21613 c 0.39877,-0.36445 -0.11453,-1.18696 -1.14066,-1.82779 -2.23842,-1.39792 -5.8702,0.63473 -4.653,2.6042 0.70714,1.14417 4.20515,0.6754 5.79366,-0.77641 z m -12.22905,-1.90307 c 4.10796,-0.57077 8.23938,-3.01964 7.39615,-4.38402 -0.68928,-4.0787201 -1.75301,-0.9309501 -2.81784,0.0327 -1.27296,1.15201 -3.77558,1.42124 -5.74602,1.02715 -2.28795,-0.45759 -2.07611,0.7664 -3.95131,2.8252 -2.12149,2.32924 -2.16201,2.52241 -0.37697,1.79723 1.1,-0.44689 3.57319,-1.0311 5.49599,-1.29826 z m -7.85677,-2.17622 c 1.88628,-1.57144 2.02548,-1.97342 0.69257,-2 C 13.48071,9.9004329 11,12.005723 11,13.500323 c 0,1.92983 1.36039,1.74127 4.13922,-0.57372 z M 52.5,10.893333 c 0.42378,-0.78425 0.68578,-1.5623201 -0.095,-2.1276201 -0.85057,-0.61583 -2.92858,-0.23429 -4.17963,-0.36465 -3.03006,-0.31574 -3.98489,1.46372 -1.68701,3.1439701 2.51755,1.84089 4.45589,2.13482 5.96164,-0.6517 z M 40.003,8.6433329 c 3.48024,-4.29406 -0.77432,-6.29092 -5.49387,-2.57852 -2.60651,2.05028 -2.65919,2.24563 -0.94373,3.5 2.59939,1.9007201 4.35379,1.6495901 6.4376,-0.92148 z m -13.28923,-0.37268 c 0.50364,-1.53642 -2.945,-1.94145 -4.62944,-1.06165 -1.48027,0.77316 -1.79144,1.20905 -1.08433,1.95075 0.86991,0.9124601 5.27831,0.43935 5.71377,-0.8891 z"
           id="path14212"
           inkscape:connector-curvature="0"
           sodipodi:nodetypes="sssssssscsssssssasccssssssssssssssssssssssscssccssssssasssssssssscsssssscsssssssssssssss" />
      </g>
      <g
         id="g4245"
         transform="matrix(1.263456,0,0,1.263456,278.36001,104.07372)">
        <path
           style="fill:#ffffff;fill-opacity:1"
           d="m 12.6728,34.084273 c -1.00321,-1.10854 -1.94275,-2.84249 -2.08786,-3.85323 C 10.39935,28.938363 9.3096,28.296003 6.91055,28.065153 2.73079,27.662963 0,25.360423 0,22.238343 c 0,-2.39976 3.15084,-6.34501 5.06739,-6.34501 0.62462,0 2.91596,-1.74324 2.53118,-2.95554 -0.88113,-2.7762 3.30208,-4.2489601 5.09828,-4.9560701 1.40149,-0.55172 2.38681,0.0828 4.8245,-1.07243 1.82283,-0.86383 4.15882,-3.52714 5.03395,-3.28645 0.87513,0.2407 2.95751,-0.59708 4.19539,-0.24125 1.49059,0.42846 3.2313,-0.0513 5.15437,-1.42065 3.58918,-2.55572999 6.11001,-2.60269999 10.88478,-0.20281 2.04059,1.02563 5.64528,1.6905 7.71016,2.5342 6.42142,2.62378 6.8,4.9792 6.8,4.9792 0.62263,1.3678501 0.64676,3.0916201 -0.45933,4.2769501 -1.94749,2.087 -1.95463,2.24129 -0.22592,4.87963 0,0 0.2465,1.65095 0.10577,2.45932 -0.16276,0.93489 -1.07633,2.63553 -1.07633,2.63553 -1.51565,1.30371 -3.74312,2.43891 -4.94995,2.52268 -1.20683,0.0838 -2.67934,0.20365 -3.27223,0.26638 -0.5929,0.0627 -2.58614,1.38308 -4.42944,2.93411 -2.84944,2.39764 -4.03604,2.75882 -7.922,2.41129 -3.42147,-0.30598 -5.30177,0.0949 -7.47894,1.59444 -4.30322,2.96393 -12.57229,3.42531 -14.91883,0.83241 z M 21,9.1597529 c -14,17.7468381 -7,8.8734191 0,0 z"
           id="path4247"
           inkscape:connector-curvature="0"
           sodipodi:nodetypes="sssssssscsssssssasccsssscc" />
        <path
           inkscape:connector-curvature="0"
           id="path4249"
           transform="matrix(0.64466527,0,0,0.64466527,-163.21467,-48.707377)"
           d="m 310.41992,75.556641 c -2.59933,0.04843 -4.9682,1.056847 -7.75195,3.039062 -2.98305,2.124126 -5.68195,2.869702 -7.99414,2.205078 -1.92019,-0.551961 -5.15227,0.746419 -6.50977,0.373047 -1.35749,-0.373356 -4.98103,3.75769 -7.80859,5.097656 -3.78133,1.791985 -5.30844,0.808239 -7.48242,1.664063 -2.78626,1.096864 -9.27501,3.381079 -7.90821,7.6875 0.59687,1.880511 -2.95882,4.585933 -3.92773,4.585933 -2.97294,0 -7.85938,6.11931 -7.85938,9.8418 0,4.84295 4.23514,8.41519 10.71875,9.03906 3.72139,0.3581 5.41134,1.35418 5.69922,3.35938 0.2251,1.56785 1.68407,4.257 3.24024,5.97656 3.35449,3.70667 14.50116,3.38206 21.45508,-0.28906 -0.0947,1.08958 0.28344,2.33983 0.59765,3.44531 0.32871,1.15647 0.63029,2.30637 1.35547,3.29883 0.72519,0.99244 1.72771,1.88939 2.91602,2.44922 1.1883,0.55985 2.75408,0.73333 4.00586,0.73633 1.25177,0.003 2.38552,-0.31933 3.38476,-0.60547 0.99925,-0.28615 1.63316,-0.53139 2.59766,-1.03906 0.96448,-0.50766 2.00321,-1.04889 3.11133,-2.07813 1.10812,-1.02923 2.65411,-2.78721 3.27929,-4.20508 0.26642,-0.60424 0.50585,-1.12828 0.67188,-1.65039 0.69031,0.83103 1.56542,1.5731 2.59179,2.05664 1.1883,0.55985 2.75408,0.73333 4.00586,0.73633 1.25177,0.003 2.38553,-0.31933 3.38477,-0.60547 0.99925,-0.28615 1.63316,-0.53138 2.59766,-1.03906 0.96448,-0.50766 2.0032,-1.04889 3.11132,-2.07813 1.10812,-1.02923 2.65412,-2.7872 3.2793,-4.20507 0.62515,-1.41787 1.19975,-2.41182 0.66406,-3.90821 -0.50472,-1.40984 -2.66471,-2.76233 -3.95117,-3.50195 1.8879,-0.16997 5.27723,-1.90444 7.59766,-3.90039 0,0 1.41745,-2.6377 1.66992,-4.08789 0.2183,-1.25394 -0.16406,-3.81446 -0.16406,-3.81446 -2.68157,-4.09257 -2.67133,-4.332969 0.34961,-7.570308 1.71575,-1.838675 1.67871,-4.512966 0.71289,-6.634765 0,0 -0.58797,-3.652668 -10.54883,-7.722656 -3.20303,-1.308742 -8.79364,-2.340691 -11.95899,-3.931641 -3.70329,-1.861346 -6.53347,-2.773041 -9.13281,-2.724609 z m 3.625,6.384765 c 3.24635,0.08699 4.55963,2.858413 1.18555,7.021485 -3.23239,3.988225 -5.95417,4.376117 -9.98633,1.427734 -2.66101,-1.945769 -2.58031,-2.247355 1.46289,-5.427734 2.74535,-2.159493 5.39008,-3.073677 7.33789,-3.021485 z m -22.98437,4.087891 c 2.13648,0.06035 4.04296,0.865917 3.55468,2.355469 -0.67548,2.060681 -7.51388,2.794307 -8.86328,1.378906 -1.09686,-1.15052 -0.61454,-1.828024 1.68164,-3.027344 0.97984,-0.511777 2.34506,-0.743239 3.62696,-0.707031 z m 36.08007,2.501953 c 0.26817,0.0061 0.54999,0.02408 0.84376,0.05469 1.94061,0.202213 5.16302,-0.388865 6.48242,0.566406 1.21114,0.876889 0.8058,2.084258 0.14843,3.300781 -2.3357,4.322429 -5.34284,3.865341 -9.24804,1.009766 -3.34168,-2.443492 -2.24908,-5.022403 1.77343,-4.931641 z m -28.23632,0.492188 c 0.53377,-0.01034 1.01701,0.785622 1.41797,3.158203 1.30801,2.116416 -5.10238,5.915407 -11.47461,6.800781 -2.98264,0.414416 -6.81713,1.320458 -8.52344,2.013668 -2.76894,1.1249 -2.70686,0.82404 0.58398,-2.789059 2.9088,-3.193595 2.57986,-5.090669 6.12891,-4.380859 3.05653,0.611309 6.93946,0.193239 8.91406,-1.59375 1.03235,-0.934254 2.0635,-3.191746 2.95313,-3.208984 z m -23.21485,3.058593 c 0.67126,-0.0048 1.36307,0.123415 2.04688,0.421875 2.0676,0.04123 1.85176,0.663957 -1.07422,3.101563 -4.3105,3.590995 -6.42188,3.884163 -6.42188,0.890625 0,-1.88371 2.54045,-4.393182 5.44922,-4.414063 z m 42.37305,2.560547 c 0.93545,0.01421 1.86659,0.309813 2.6582,0.966797 1.5802,1.311456 1.76902,2.617422 0.67578,4.660155 -0.83524,1.56064 -1.51757,4.27861 -1.51757,6.04102 0,2.63924 -0.97556,3.20507 -5.53125,3.20507 -7.55268,0 -11.53125,2.42775 -11.53125,7.03516 0,4.78521 -2.71259,5.05119 -3.38282,0.33203 -0.63881,-4.49801 -9.29181,-5.49303 -17.5957,-2.02343 -8.84623,3.69619 -11.67096,3.07885 -6.16797,-1.34766 2.55947,-2.05879 6.57508,-3.69284 8.92383,-3.63281 2.34874,0.06 5.5958,-1.08947 7.21484,-2.55469 1.92738,-1.74426 2.33651,-6.34385 3.96485,-1.01172 1.73772,5.69036 18.87818,-0.64811 17.39844,-6.30664 -0.76118,-2.910744 2.08427,-5.405901 4.89062,-5.363282 z m -14.87109,3.742188 c 0.98692,-0.03839 1.98936,0.172733 2.85742,0.714843 1.59172,0.994051 2.3881,2.268651 1.76953,2.833981 -2.46409,2.25204 -7.88942,2.97991 -8.98633,1.20508 -1.41608,-2.29127 1.39859,-4.638722 4.35938,-4.753904 z m 22.54687,3.375004 c 4.50214,0 10.39774,4.77779 7.8711,6.3789 -2.50771,1.58909 -8.14575,1.78981 -9.59376,0.3418 -2.15296,-2.15296 -0.9822,-6.7207 1.72266,-6.7207 z m -38.58203,0.8457 c 1.10297,-0.0692 1.56009,0.34799 1.27148,1.21484 -0.74282,2.23113 -5.77734,3.39529 -5.77734,1.33594 0,-0.81622 1.43639,-1.85941 3.19141,-2.31836 0.50746,-0.1327 0.94679,-0.20935 1.31445,-0.23242 z m -16.61914,2.25586 c 5.60195,0 5.85476,4.16222 0.37891,6.24414 -5.23767,1.99136 -8.00167,1.91073 -9.35157,-0.27344 -1.53047,-2.47637 3.71964,-5.9707 8.97266,-5.9707 z m 42.75391,8.41015 c 2.72248,0.0308 2.59101,1.98793 -1.06641,3.94532 -3.75182,2.00783 -4.32777,2.00271 -5.5957,-0.0488 -1.271,-2.05653 -0.95436,-2.3182 4.33007,-3.58594 0.9241,-0.22169 1.70377,-0.31764 2.33204,-0.31055 z m -22.17188,2.48829 c 2.00267,-0.054 4.00197,0.3555 4.56445,1.26562 0.44343,0.71749 -1.23319,2.81037 -3.72461,4.65234 -4.40464,3.2565 -10.83469,4.4075 -12.92773,2.31446 -2.32645,-2.32643 -0.81283,-5.16992 2.75195,-5.16992 2.08254,0 4.21686,-0.69763 4.74414,-1.55079 0.58154,-0.94094 2.58913,-1.45775 4.5918,-1.51171 z m 33.69922,2.87695 c 1.0935,-0.0733 2.1971,0.0805 3.25,0.40039 0.97598,0.35816 2.18411,0.36332 2.85156,1.27734 1.125,0.74214 0.0114,1.63298 -0.65625,2.25196 -0.85777,1.0127 -1.80919,1.86603 -3.04297,2.40039 -0.80668,0.86271 -2.11287,0.95825 -3.22265,1.19726 -0.67152,0.2145 -1.39799,0.002 -2.0586,-0.1582 -1.21238,-0.25317 -1.9972,-1.24005 -2.74609,-2.14063 -0.66048,-0.55166 -0.64186,-1.41452 -0.3125,-2.14843 0.32218,-0.25678 0.63494,-0.49925 0.98633,-0.79492 0.53265,-0.4482 1.06831,-0.86428 1.60156,-1.27735 0.71458,-0.38564 1.45741,-0.7091 2.26172,-0.85742 0.36016,-0.0777 0.72339,-0.12594 1.08789,-0.15039 z m -19.64258,6.78516 c 1.0935,-0.0734 2.1971,0.0825 3.25,0.40234 0.97598,0.35816 2.18411,0.36137 2.85156,1.27539 1.125,0.74214 0.0114,1.63297 -0.65625,2.25195 -0.85777,1.0127 -1.80918,1.86603 -3.04297,2.40039 -0.80668,0.86271 -2.11482,0.95826 -3.2246,1.19727 -0.67152,0.2145 -1.39603,0.002 -2.05664,-0.1582 -1.21238,-0.25317 -1.99721,-1.24005 -2.7461,-2.14063 -0.98268,-0.82078 -0.48054,-2.33675 0.34766,-3.07812 1.32405,-0.78787 2.64425,-1.71311 4.18945,-1.99805 0.36017,-0.0777 0.72339,-0.1279 1.08789,-0.15234 z"
           style="fill:#0026ff;fill-opacity:1" />
      </g>
      <path
         sodipodi:nodetypes="zzzzzzzzzzzzzzzzzcccccccccc"
         inkscape:connector-curvature="0"
         id="path19866"
         d="m 42.373237,49.844662 c -1.46814,-0.195375 -2.85291,-0.817258 -3.971298,-1.635748 -1.118387,-0.818505 -1.835214,-1.950073 -2.583657,-3.080315 -0.748444,-1.130241 -1.643932,-2.406402 -1.869615,-3.663617 -0.225681,-1.257232 0.219074,-2.158702 0.413241,-3.526729 0.194171,-1.368013 0.140111,-2.736359 0.910128,-3.89475 0.769982,-1.158391 1.639473,-2.131384 2.919797,-2.704429 1.280325,-0.57303 3.018304,-1.027052 4.624439,-1.323712 1.606132,-0.296651 3.584576,-0.375658 4.971004,-0.431037 1.386436,-0.05539 1.766728,-0.306971 3.335451,0.02215 1.568737,0.32915 4.681697,1.061889 5.76873,2.486607 1.087019,1.424726 0.809615,2.689809 0.62249,4.426938 -0.18714,1.73713 -1.247242,4.154495 -2.086109,5.639103 -0.83886,1.484626 -1.771176,2.420306 -2.633975,3.295412 -0.862794,0.875129 -1.460283,1.355494 -2.436143,2.004466 -0.975853,0.648967 -2.083443,1.383504 -3.42943,1.808229 -1.34598,0.424716 -3.086914,0.772811 -4.555053,0.577411 z m 4.083127,-6.4832 c 1.110734,-0.636105 2.482534,-1.184519 3.054423,-2.387187 1.14303,-0.995832 1.873234,-2.2381 2.448756,-3.619389 0.50583,-0.893268 1.398317,-2.231787 -0.0641,-2.644694 -1.029552,-0.753962 -2.328698,-0.344819 -3.499762,-0.396077 -1.654181,0.02157 -3.304241,0.387689 -4.745989,1.213899 -1.562892,0.834284 -2.66478,2.279656 -3.818159,3.578736 -0.636485,1.079644 -0.657953,2.881813 0.678431,3.42785 1.112454,0.711691 2.292641,1.50388 3.681822,1.361544 0.764446,-0.05401 1.616379,-0.07469 2.264596,-0.534682 z"
         style="fill:#ff0000;fill-opacity:1;stroke:#ffffff;stroke-width:0.1708034;stroke-opacity:1" />
      <path
         inkscape:transform-center-y="64.479154"
         inkscape:transform-center-x="59.081847"
         style="fill:#0026ff;fill-opacity:1;stroke:#ffffff;stroke-width:0.1708034;stroke-opacity:1"
         d="m 105.24984,216.26955 c -1.33984,-0.63121 -2.47093,-1.64359 -3.28859,-2.76259 -0.81767,-1.11901 -1.15776,-2.41462 -1.52838,-3.71856 -0.37062,-1.30393 -0.837142,-2.7915 -0.671112,-4.05797 0.166043,-1.2665 0.863122,-1.99073 1.462852,-3.23553 0.59971,-1.24479 0.96298,-2.56515 2.04791,-3.43562 1.08489,-0.87049 2.20841,-1.53415 3.60221,-1.69212 1.39377,-0.15797 3.18761,-0.0638 4.80809,0.14036 1.62051,0.20416 3.52981,0.7286 4.86779,1.09608 1.33799,0.36749 1.77665,0.24301 3.1718,1.03218 1.39515,0.78919 4.13954,2.43107 4.74357,4.11825 0.60399,1.68721 -0.0439,2.8087 -0.74872,4.40737 -0.70491,1.59867 -2.44791,3.58095 -3.69734,4.74143 -1.24942,1.16048 -2.42149,1.76953 -3.50896,2.34192 -1.08748,0.57242 -1.80247,0.84907 -2.92914,1.1717 -1.12665,0.32263 -2.40479,0.68687 -3.8162,0.6836 -1.41139,-0.004 -3.17593,-0.19927 -4.51577,-0.83052 z m 5.85626,-4.94046 c 1.25128,-0.26948 2.72479,-0.37626 3.63434,-1.34899 1.3911,-0.60249 2.46351,-1.56498 3.43067,-2.70681 0.75282,-0.69791 2.00905,-1.70292 0.74059,-2.5397 -0.75256,-1.03057 -2.1146,-1.03448 -3.21504,-1.43831 -1.58289,-0.48086 -3.26631,-0.63216 -4.89066,-0.28186 -1.74225,0.32128 -3.23043,1.36464 -4.72332,2.25299 -0.93381,0.8359 -1.50056,2.54677 -0.39256,3.47221 0.84438,1.01542 1.72891,2.12809 3.09586,2.41354 0.74487,0.18027 1.56298,0.4188 2.32013,0.17693 z"
         id="path4243"
         inkscape:connector-curvature="0"
         sodipodi:nodetypes="zzzzzzzzzzzzzzzzzcccccccccc" />
      <path
         sodipodi:nodetypes="ccsssscssssssssssscsscssccccsscscccsscscsscss"
         inkscape:connector-curvature="0"
         id="path4656"
         d="M 9.4779664,65.965355 C 9.0661439,65.756572 9.0065855,65.664558 8.9379334,65.131257 8.841424,64.381458 8.761732,63.996539 8.2027192,61.580279 6.8537812,55.749474 6.9843661,51.900212 8.6361335,48.805342 9.968089,46.309673 10.380428,45.451351 10.380428,45.174399 c 0,-0.377259 -0.4171747,-1.327588 -0.6776905,-1.543795 -0.281943,-0.233993 -0.6029081,-1.31343 -0.505709,-1.700729 0.2727244,-1.086591 1.6386055,-1.568364 2.5468305,-0.898299 0.638241,0.470882 0.830997,0.340634 2.027721,-1.370163 1.304539,-1.864937 2.289103,-2.457354 3.788783,-2.279737 0.567013,0.06715 1.96104,0.644668 2.131691,0.883111 0.04408,0.06161 0.13817,0.07615 0.209071,0.03231 0.07091,-0.0438 0.147866,-0.03593 0.171039,0.01757 0.02318,0.05349 0.352983,0.291761 0.732916,0.529492 4.412573,2.761026 4.617662,7.960016 0.384594,9.749446 -0.502795,0.212545 -1.637285,0.941533 -2.268567,1.457702 -0.649858,0.531366 -0.616651,0.50861 -1.632778,1.118626 -0.974377,0.58495 -2.059672,1.044284 -2.979855,1.26118 -0.837287,0.19735 -1.289944,0.702833 -1.29297,1.443838 -0.0035,0.871929 -0.367426,3.915938 -0.755913,6.323718 -0.07245,0.449015 -0.183864,1.171943 -0.247603,1.606506 -0.06374,0.43456 -0.150606,0.846269 -0.193034,0.914922 -0.04243,0.06865 -0.131337,0.700909 -0.19759,1.405026 -0.135471,1.439747 -0.312276,1.755652 -1.106006,1.97614 -0.5316199,0.14767 -0.459288,0.157151 -1.0373916,-0.13594 z M 10.092619,58.78572 c 0.427525,-0.919193 0.921804,-4.989789 0.737162,-6.070822 -0.05523,-0.323289 -0.01516,-0.82564 0.108291,-1.357972 0.26255,-1.132076 0.250317,-1.62034 -0.04734,-1.889714 -1.2138187,-1.098497 -2.1451031,6.271938 -1.1932833,9.444101 0.072808,0.242649 0.2501161,0.186297 0.3951693,-0.125593 z m 4.49535,-8.921347 c 0.438426,-0.157279 3.53981,-1.965806 3.957134,-2.307531 0.155793,-0.127582 0.544344,-0.454872 0.863426,-0.727315 0.319095,-0.272442 0.688982,-0.583299 0.82199,-0.690787 1.14764,-0.927512 1.55851,-1.774628 1.298346,-2.676851 -0.375563,-1.302414 -3.061268,-3.243493 -4.536169,-3.278503 l -0.741934,-0.01761 -0.798904,0.879185 c -0.439392,0.483552 -0.799383,0.924006 -0.799998,0.978776 -0.0012,0.05477 -0.221568,0.393889 -0.491039,0.753592 -1.148043,1.532438 -1.319937,2.313246 -1.019179,4.629701 0.06588,0.507442 0.121529,1.20158 0.123664,1.542523 0.0043,0.691764 0.39286,1.275676 0.751442,1.129336 0.106934,-0.04362 0.363983,-0.140177 0.571221,-0.214523 z"
         style="fill:#000000;stroke:#000000;stroke-width:1.26125741;stroke-miterlimit:4;stroke-dasharray:none;stroke-opacity:1" />
      <path
         style="fill:#000000;stroke:#000000;stroke-width:1.26125741;stroke-miterlimit:4;stroke-dasharray:none;stroke-opacity:1"
         d="m 71.51562,225.73767 -0.44125,-0.46786 0.0781,-1.52691 c 0.04294,-0.83978 0.0964,-1.75296 0.118752,-2.02928 0.02237,-0.2763 0.136764,-1.68929 0.254225,-3.13994 0.364574,-4.50275 0.380034,-7.1518 0.04987,-8.54135 -0.393035,-1.65409 -0.135207,-2.1973 1.042943,-2.1973 0.61175,0 1.040241,-0.24663 1.303457,-0.75024 0.127333,-0.24362 0.472501,-0.79294 0.767055,-1.22073 0.29454,-0.42778 0.535525,-0.82769 0.535525,-0.88869 0,-0.0609 0.141297,-0.24367 0.313997,-0.4059 0.172696,-0.16223 0.313994,-0.34165 0.313994,-0.39869 0,-0.057 0.09891,-0.20871 0.219797,-0.33704 1.347631,-1.43077 1.710873,-1.79605 2.299829,-2.31267 0.375715,-0.32959 0.772656,-0.68283 0.882065,-0.78499 0.109408,-0.10217 0.256081,-0.18575 0.325927,-0.18575 0.06984,0 0.231678,-0.11569 0.359624,-0.25707 0.232483,-0.25689 0.427523,-0.35828 1.650763,-0.85829 1.069745,-0.43728 2.77669,-0.27863 3.824957,0.35547 0.232156,0.14044 0.501338,0.29343 0.598174,0.33998 0.635351,0.3054 1.530452,1.74648 1.781448,2.86807 0.234141,1.04623 0.01634,1.64639 -1.284091,3.53829 -0.197692,0.28761 -0.359437,0.57828 -0.359437,0.64595 0,0.0676 -0.08478,0.15555 -0.188397,0.19532 -0.103619,0.0398 -0.188399,0.1228 -0.188399,0.18452 0,0.40359 -1.871589,2.0166 -3.137721,2.70425 -0.240545,0.13062 -0.494881,0.30798 -0.565192,0.39411 -0.206959,0.2535 -1.571786,0.89294 -2.426005,1.1366 -0.435033,0.12411 -0.81988,0.27238 -0.855197,0.32954 -0.03531,0.0572 -0.174683,0.1039 -0.3097,0.1039 -0.135018,0 -0.343625,0.0505 -0.463583,0.11208 -0.567026,0.2914 -1.768473,0.40187 -2.237809,0.20577 -1.41087,-0.58952 -1.554026,-0.3243 -1.692763,3.1361 -0.05817,1.45066 -0.140921,3.25927 -0.183888,4.01915 -0.04297,0.75986 -0.118001,2.32873 -0.166706,3.48639 l -0.08857,2.10481 -0.37957,0.37956 c -0.617906,0.61791 -1.208732,0.6391 -1.752208,0.0628 z m 5.278644,-15.15318 c 0.276316,-0.12273 0.813247,-0.31934 1.193182,-0.43688 0.379935,-0.11756 0.744484,-0.26206 0.810108,-0.32116 0.06562,-0.0591 0.213279,-0.10745 0.328126,-0.10745 0.114848,0 0.422161,-0.16956 0.68294,-0.37679 0.26078,-0.20724 0.520379,-0.3768 0.576887,-0.3768 0.234629,0 1.747647,-1.07419 2.649607,-1.88113 0.831611,-0.74401 2.066983,-2.39659 2.228314,-2.98086 0.505043,-1.82915 -1.773311,-3.47828 -3.382436,-2.44825 -0.172699,0.11054 -0.492207,0.28868 -0.71002,0.39585 -0.828447,0.40767 -3.304238,2.77941 -3.569288,3.4193 -0.08091,0.19533 -0.189981,0.35513 -0.24238,0.35513 -0.118539,0 -1.130233,1.32882 -1.130233,1.48452 0,0.0625 -0.169557,0.32708 -0.376795,0.58785 -0.207238,0.26078 -0.376795,0.55114 -0.376795,0.64526 0,0.0942 -0.04565,0.17113 -0.101419,0.17113 -0.107726,0 -0.45424,0.7529 -0.562906,1.22309 -0.185899,0.80438 0.860498,1.14586 1.983108,0.64719 z m 14.259392,-12.95473 c -1.254085,-0.38375 -2.25504,-0.45188 -8.163872,-0.55575 -6.585442,-0.11575 -9.709485,-0.30062 -10.861558,-0.64275 -1.746745,-0.51872 -1.392873,-2.68952 0.438438,-2.68952 0.351461,0 0.692711,0.0511 0.758337,0.11353 0.222611,0.21186 2.227509,0.34508 6.964421,0.46278 3.97737,0.0988 3.733409,0.0964 5.221585,0.0526 0.639847,-0.0188 1.249965,0.0255 1.391238,0.10115 0.138397,0.0741 0.558121,0.17159 0.93273,0.21673 0.912119,0.1099 2.14783,0.49737 3.067485,0.96182 0.414475,0.20932 1.02149,0.46097 1.348913,0.55924 0.690074,0.20707 0.89171,0.61114 0.581707,1.16574 -0.20112,0.35985 -0.959432,0.4747 -1.679424,0.25437 z"
         id="path4662"
         inkscape:connector-curvature="0"
         sodipodi:nodetypes="scscsssscsssccsscscsssssscscssccscsccscsssssccccsssssssccssscssccsscc" />
      <path
         sodipodi:nodetypes="zzzzzzzzcccczzzzzzzczzzzzzzzsscccz"
         inkscape:connector-curvature="0"
         id="path4664"
         d="m 168.90817,96.100479 c -0.63037,-0.101913 -1.22487,-1.693911 -1.04562,-2.773401 0.17925,-1.079486 0.16895,-2.200463 0.23229,-3.365351 0.0633,-1.164888 -0.2233,-2.369686 -0.26995,-3.609086 -0.0466,-1.239402 -0.26553,-2.602849 -0.39463,-3.743525 -0.12907,-1.140669 0.96952,-2.617616 1.91762,-1.485928 0.94809,1.13169 1.04773,-1.078039 1.20004,-1.96664 0.15233,-0.888608 0.51376,-2.103085 0.95943,-3.080793 0.44568,-0.97771 1.06976,-2.330136 2.31272,-2.374664 1.24296,-0.04453 3.06201,0.481329 4.05814,1.441327 0.99613,0.959994 1.61873,1.620371 2.37254,2.850879 0.53904,0.879924 1.11158,2.522789 1.52204,3.469554 0.82292,1.898226 1.26934,4.315419 1.73998,5.957922 0.47062,1.642503 0.25073,-0.129971 0.43702,-1.289286 0.18628,-1.159316 0.62503,-3.880986 1.02571,-5.632082 0.4007,-1.751102 0.46002,-3.716187 0.73619,-4.985936 0.27618,-1.26975 -0.33851,-3.31129 0.84073,-3.079176 1.17922,0.23211 1.70146,0.607776 1.62524,3.115242 -0.0763,2.507466 -0.97108,8.145452 -1.52474,10.932344 -0.55367,2.786888 -0.66403,5.797769 -0.66403,5.797769 0,0 -0.36319,2.986826 -1.46119,3.815229 -1.09801,0.828406 -2.019,0.340124 -2.10856,-1.427219 -0.0895,-1.767341 -0.54067,-3.847733 -1.04401,-5.828638 -0.50335,-1.980902 -1.32804,-4.327329 -2.10269,-5.833984 -0.77466,-1.506653 -1.19317,-3.249038 -1.9525,-4.282661 -0.75935,-1.033626 -0.99386,-1.028463 -1.76309,-1.188441 -0.76923,-0.159984 -0.5396,-0.139376 -1.06291,0.406381 -0.52331,0.545762 -1.10512,1.616609 -1.35743,2.72211 -0.2523,1.105501 -0.42256,2.46613 -0.69466,3.686687 -0.22929,1.028522 -0.59428,2.562153 -0.7896,3.597656 -0.21564,1.143185 -0.41929,2.928193 -0.41929,2.928193 l -0.2899,3.144479 c 0,0 -0.5857,2.223539 -2.03488,2.081039 0,0 0.63035,0.101906 -10e-6,0 z"
         style="fill:#000000;stroke:#000000;stroke-width:1.37613821;stroke-miterlimit:4;stroke-dasharray:none;stroke-opacity:1" />
      <path
         inkscape:connector-curvature="0"
         id="path4710"
         d="m 336.80375,70.968918 c -0.24875,0.0039 -0.48759,0.05222 -0.69201,0.151129 -2.26607,1.096506 -2.2186,4.589175 -2.66624,7.066478 -0.1007,0.557172 -0.45412,1.365789 0.006,1.69742 0.35199,0.254363 0.89979,-0.133256 1.23927,-0.404073 0.3805,-0.30354 0.51949,-0.823752 0.75087,-1.251985 0.50941,-0.942759 0.96981,-1.912256 1.39993,-2.893724 0.12812,-0.29235 0.19734,-0.611408 0.35158,-0.890866 0.35196,-0.637756 0.96705,-1.111369 1.29333,-1.762642 0.11451,-0.22852 0.34152,-0.507057 0.22273,-0.733374 -0.31659,-0.603217 -1.15797,-0.989756 -1.90423,-0.978363 z m -9.4225,1.293348 c -0.90514,0.03769 -0.3806,1.906961 -0.63951,3.097351 -0.27617,1.269749 -0.33586,3.234569 -0.73656,4.985669 -0.40068,1.751096 -0.83979,4.472232 -1.02609,5.631548 -0.18627,1.159315 0.0333,2.931075 -0.43747,1.288573 -0.47063,-1.642505 -0.91584,-4.059442 -1.73878,-5.957667 -0.41045,-0.946764 -0.98338,-2.589682 -1.52243,-3.469606 -0.75381,-1.230509 -1.3758,-1.890777 -2.37193,-2.850772 -0.99612,-0.959999 -2.81526,-1.485823 -4.05822,-1.441294 -1.24295,0.04453 -1.86739,1.397402 -2.31307,2.375113 -0.44567,0.977707 -0.80693,2.192837 -0.95926,3.081443 -0.15231,0.8886 -0.25298,3.097958 -1.20108,1.966268 -0.9481,-1.131687 -2.04603,0.345167 -1.91696,1.485838 0.12909,1.140675 0.34786,2.503828 0.39452,3.743229 0.0466,1.239398 0.33374,2.44471 0.27045,3.609598 -0.0633,1.164889 -0.053,2.285126 -0.23226,3.364611 -0.17925,1.07949 0.41483,2.672499 1.04517,2.774413 1.44918,0.142499 2.03468,-2.0824 2.03468,-2.0824 l 0.28954,-3.143486 c 0,0 0.20435,-1.785538 0.41997,-2.928722 0.19533,-1.035505 0.55978,-2.56835 0.78906,-3.596871 0.2721,-1.220559 0.44288,-2.58205 0.69518,-3.687551 0.25231,-1.105501 0.83368,-2.176153 1.35699,-2.721914 0.52332,-0.545759 0.29344,-0.565646 1.06267,-0.405664 0.76923,0.15998 1.0049,0.154728 1.76424,1.188353 0.75935,1.033623 1.17728,2.775868 1.95195,4.282521 0.77466,1.506653 1.59974,3.852682 2.10309,5.833582 0.50333,1.980906 0.95401,4.061471 1.04358,5.828811 0.0896,1.767344 1.00985,2.255383 2.10785,1.426978 1.098,-0.828404 1.46198,-3.814818 1.46198,-3.814818 0,0 0.1097,-3.011695 0.66337,-5.798584 0.55366,-2.786891 1.44938,-8.424736 1.52561,-10.932201 0.0763,-2.507465 -0.44661,-2.88274 -1.62583,-3.11485 -0.0737,-0.01451 -0.1401,-0.02001 -0.20045,-0.0175 z"
         style="fill:#000000;stroke:#000000;stroke-width:1.26125741;stroke-miterlimit:4;stroke-dasharray:none;stroke-opacity:1" />
      <g
         transform="matrix(1.6288946,0,0,1.6288946,7.1029039,-422.92006)"
         id="g4834">
        <g
           style="font-style:normal;font-variant:normal;font-weight:normal;font-stretch:normal;letter-spacing:normal;word-spacing:normal;text-anchor:start;fill:none;fill-opacity:1;fill-rule:evenodd;stroke:#000000;stroke-linecap:butt;stroke-linejoin:miter;stroke-miterlimit:10.43299961;stroke-dasharray:none;stroke-dashoffset:0;stroke-opacity:1"
           word-spacing="normal"
           letter-spacing="normal"
           font-size-adjust="none"
           font-stretch="normal"
           font-weight="normal"
           font-variant="normal"
           font-style="normal"
           stroke-miterlimit="10.433"
           xml:space="preserve"
           transform="matrix(0.35006798,0,0,-0.35006798,-61.261897,532.28834)"
           id="content"><path
             style="fill:#000000;stroke-width:0"
             inkscape:connector-curvature="0"
             id="path4837"
             d="m 478.19,431.11 0,0.31 -0.01,0.34 -0.02,0.36 -0.02,0.37 -0.03,0.39 -0.04,0.39 -0.04,0.41 -0.06,0.41 -0.07,0.42 -0.07,0.43 -0.09,0.42 -0.1,0.43 -0.12,0.42 -0.12,0.42 -0.14,0.41 -0.16,0.41 -0.17,0.4 -0.18,0.38 -0.2,0.37 -0.22,0.36 -0.23,0.34 -0.25,0.32 -0.28,0.3 -0.29,0.27 -0.31,0.25 -0.16,0.12 -0.17,0.1 -0.17,0.1 -0.18,0.1 -0.18,0.08 -0.19,0.08 -0.19,0.07 -0.2,0.06 -0.21,0.05 -0.21,0.05 -0.22,0.03 -0.22,0.02 -0.23,0.02 -0.23,0 -0.05,-1.09 c 2.44,0 2.73,-3.19 2.73,-6.03 0,-2.44 -0.39,-4.99 -1.59,-9.92 l -10.41,0 c 0.85,3.2 1.85,7.18 3.83,10.72 1.36,2.43 3.19,5.23 5.44,5.23 l 0.05,1.09 c -6.92,0 -14.6,-14.04 -14.6,-25.45 0,-4.69 1.44,-10.22 5.99,-10.22 l 0,1.1 c -1.66,0 -2.71,1.45 -2.71,6.07 0,2.1 0.3,4.99 1.6,9.86 l 10.37,0 c -0.54,-2.28 -1.59,-6.51 -3.5,-10.11 -1.73,-3.39 -3.62,-5.82 -5.76,-5.82 l 0,-1.1 c 7.01,0 14.59,14.3 14.59,25.46 z" /><path
             style="fill:#000000;stroke-width:0"
             inkscape:connector-curvature="0"
             id="path4839"
             d="m 501.61,407.93 -1.19,0 c -0.39,-3.42 -0.9,-7.92 -7.5,-7.92 l -3.48,0 c -1.63,0 -1.67,0.28 -1.67,1.36 l 0,18.33 c 0,1.16 0,1.61 3.28,1.61 l 1.22,0 0,1.25 c -0.74,-0.03 -5.19,-0.14 -6.1,-0.14 -1.33,0 -5.26,0.14 -5.29,0.14 l 0,-1.25 0.82,0 c 2.69,0 2.77,-0.35 2.77,-1.58 l 0,-18.14 c 0,-1.19 -0.08,-1.58 -2.77,-1.58 l -0.82,0 0,-1.25 19.68,0 z" /></g>      </g>
    </g>
    <g
       id="g5072"
       transform="matrix(0.9025,0,0,0.9025,53.797657,18.580787)">
      <path
         sodipodi:open="true"
         transform="matrix(0.93726391,0.34862067,-0.34862067,0.93726391,0,0)"
         inkscape:transform-center-y="11.831178"
         inkscape:transform-center-x="2.7337063"
         style="color:#000000;clip-rule:nonzero;display:inline;overflow:visible;visibility:visible;opacity:1;isolation:auto;mix-blend-mode:normal;color-interpolation:sRGB;color-interpolation-filters:linearRGB;solid-color:#000000;solid-opacity:1;fill:none;fill-opacity:1;fill-rule:nonzero;stroke:#000000;stroke-width:1.40999997;stroke-linecap:butt;stroke-linejoin:miter;stroke-miterlimit:0.60000002;stroke-dasharray:5.63999987, 2.81999993;stroke-dashoffset:0;stroke-opacity:1;color-rendering:auto;image-rendering:auto;shape-rendering:auto;text-rendering:auto;enable-background:accumulate"
         id="path4462"
         sodipodi:type="arc"
         sodipodi:cx="553.72107"
         sodipodi:cy="-92.879616"
         sodipodi:rx="39.386063"
         sodipodi:ry="40.993244"
         sodipodi:start="0.54316443"
         sodipodi:end="2.2807169"
         d="m 587.43859,-71.692357 a 39.386063,40.993244 0 0 1 -27.4871,19.289837 39.386063,40.993244 0 0 1 -31.90121,-9.38726" />
      <path
         style="fill:#bb5151;fill-opacity:1"
         d="m 516.70116,101.75309 c -1.11129,-1.895346 -0.20522,-3.278126 0.9435,-3.903646 1.04725,-0.57028 1.56064,-1.19966 1.56064,-1.19966 l 4.5593,-2.91759 c 0,0 -0.2506,-1.94208 -0.0858,-3.40337 0.23445,-2.07884 1.27825,-3.96705 3.41557,-3.04023 2.69602,2.48126 3.23461,6.3065 5.36304,9.89672 7.74527,13.064626 3.33006,10.445296 0.4249,9.472616 -3.80822,-1.27503 -7.47921,-2.43269 -11.2098,-3.72174 -1.64442,-0.24275 -3.79639,0.31509 -4.97137,-1.18308 z"
         id="path4404"
         inkscape:connector-curvature="0"
         sodipodi:nodetypes="csccscssccc"
         inkscape:transform-center-x="-42.594222"
         inkscape:transform-center-y="32.473956" />
      <path
         style="fill:#bb5151;fill-opacity:1"
         d="m 545.60135,114.87 c -9.78978,-7.25317 -19.3646,-14.879286 -29.73605,-21.255636 -7.71706,-5.11955 -15.7625,-9.99635 -22.41675,-16.51224 -2.79079,-2.67718 0.92887,-8.990477 3.16596,-3.57392 4.48405,4.6892 10.51558,8.02838 15.71719,12.09499 5.83756,3.16683 11.1976,7.28844 16.76462,10.93945 7.99425,5.621316 15.07248,12.620076 23.44064,17.704796 1.86688,1.13436 4.85369,4.64229 6.6725,5.85223 4.12521,2.74421 4.604,2.49992 10.32953,6.86941 10.88336,8.0144 16.61424,14.23333 27.24809,22.59608 2.06241,2.92845 23.05032,17.08557 23.29896,20.91013 -0.78683,6.03038 -11.57926,-3.80879 -13.47814,-6.53818 -12.59206,-10.79705 -31.89403,-26.53875 -44.95323,-36.76393 -5.31149,-4.15883 -10.63296,-8.30728 -16.05332,-12.32318 z"
         id="path4406"
         inkscape:connector-curvature="0"
         sodipodi:nodetypes="scccccssccccss"
         inkscape:transform-center-x="-42.594222"
         inkscape:transform-center-y="32.473956" />
      <path
         inkscape:transform-center-y="-32.473957"
         inkscape:transform-center-x="42.594227"
         sodipodi:nodetypes="csccscssccc"
         inkscape:connector-curvature="0"
         id="path4408"
         d="m 598.83544,142.28653 c 1.11129,1.89535 0.20522,3.27813 -0.9435,3.90365 -1.04725,0.57028 -1.56064,1.19966 -1.56064,1.19966 l -4.5593,2.91759 c 0,0 0.2506,1.94208 0.0858,3.40337 -0.23445,2.07884 -1.27825,3.96705 -3.41557,3.04023 -2.69602,-2.48126 -3.23461,-6.3065 -5.36304,-9.89672 -7.74527,-13.06463 -3.33006,-10.4453 -0.4249,-9.47262 3.80822,1.27503 7.47921,2.43269 11.2098,3.72174 1.64442,0.24275 3.79639,-0.31509 4.97137,1.18308 z"
         style="fill:#bb5151;fill-opacity:1" />
      <path
         style="fill:#ff0000;fill-opacity:1;stroke:#ffffff;stroke-width:0.1708034;stroke-opacity:1"
         d="m 483.00881,80.268943 c -1.46815,-0.195375 -2.85293,-0.817258 -3.9713,-1.635748 -1.11839,-0.818505 -1.83522,-1.950075 -2.58368,-3.080317 -0.74843,-1.130241 -1.64392,-2.406402 -1.8696,-3.663617 -0.22567,-1.257232 0.21908,-2.158702 0.41325,-3.526729 0.19416,-1.368013 0.14011,-2.736359 0.91012,-3.89475 0.76998,-1.158391 1.63947,-2.131384 2.91979,-2.704428 1.28032,-0.573031 3.01832,-1.027053 4.62444,-1.323713 1.60613,-0.296651 3.58458,-0.375658 4.97101,-0.431036 1.38644,-0.05539 1.76672,-0.306972 3.33545,0.02215 1.56873,0.329151 4.6817,1.061889 5.76873,2.486607 1.08702,1.424726 0.80961,2.689809 0.6225,4.426939 -0.18715,1.737129 -1.24726,4.154494 -2.08612,5.639102 -0.83886,1.484626 -1.77118,2.420306 -2.63397,3.295412 -0.86279,0.875131 -1.46029,1.355495 -2.43615,2.004468 -0.97585,0.648966 -2.08344,1.383504 -3.42942,1.808229 -1.34599,0.424716 -3.08692,0.772811 -4.55505,0.577411 z m 4.08313,-6.483202 c 1.11072,-0.636104 2.48252,-1.184519 3.05441,-2.387187 1.14303,-0.995832 1.87324,-2.2381 2.44876,-3.619388 0.50582,-0.893269 1.3983,-2.231788 -0.0641,-2.644694 -1.02955,-0.753963 -2.3287,-0.34482 -3.49977,-0.396078 -1.65419,0.02158 -3.30424,0.387689 -4.74599,1.213899 -1.56289,0.834284 -2.66478,2.279657 -3.81816,3.578736 -0.63649,1.079644 -0.65796,2.881813 0.67844,3.42785 1.11245,0.711691 2.29263,1.50388 3.68181,1.361544 0.76444,-0.054 1.61639,-0.07468 2.2646,-0.534682 z"
         id="path4269"
         inkscape:connector-curvature="0"
         sodipodi:nodetypes="zzzzzzzzzzzzzzzzzcccccccccc" />
      <g
         id="g4271"
         transform="matrix(1.2634561,0,0,1.263456,596.009,164.21832)">
        <path
           style="fill:#ffffff;fill-opacity:1"
           d="m 12.6728,34.084273 c -1.00321,-1.10854 -1.94275,-2.84249 -2.08786,-3.85323 C 10.39935,28.938363 9.3096,28.296003 6.91055,28.065153 2.73079,27.662963 0,25.360423 0,22.238343 c 0,-2.39976 3.15084,-6.34501 5.06739,-6.34501 0.62462,0 2.91596,-1.74324 2.53118,-2.95554 -0.88113,-2.7762 3.30208,-4.2489601 5.09828,-4.9560701 1.40149,-0.55172 2.38681,0.0828 4.8245,-1.07243 1.82283,-0.86383 4.15882,-3.52714 5.03395,-3.28645 0.87513,0.2407 2.95751,-0.59708 4.19539,-0.24125 1.49059,0.42846 3.2313,-0.0513 5.15437,-1.42065 3.58918,-2.55572999 6.11001,-2.60269999 10.88478,-0.20281 2.04059,1.02563 5.64528,1.6905 7.71016,2.5342 6.42142,2.62378 6.8,4.9792 6.8,4.9792 0.62263,1.3678501 0.64676,3.0916201 -0.45933,4.2769501 -1.94749,2.087 -1.95463,2.24129 -0.22592,4.87963 0,0 0.2465,1.65095 0.10577,2.45932 -0.16276,0.93489 -1.07633,2.63553 -1.07633,2.63553 -1.51565,1.30371 -3.74312,2.43891 -4.94995,2.52268 -1.20683,0.0838 -2.67934,0.20365 -3.27223,0.26638 -0.5929,0.0627 -2.58614,1.38308 -4.42944,2.93411 -2.84944,2.39764 -4.03604,2.75882 -7.922,2.41129 -3.42147,-0.30598 -5.30177,0.0949 -7.47894,1.59444 -4.30322,2.96393 -12.57229,3.42531 -14.91883,0.83241 z M 21,9.1597529 c -14,17.7468381 -7,8.8734191 0,0 z"
           id="path4273"
           inkscape:connector-curvature="0"
           sodipodi:nodetypes="sssssssscsssssssasccsssscc" />
        <path
           sodipodi:nodetypes="sssssssscsssssssasccssssssssssssssssssssssscssccssssssasssssssssscsssssscsssssssssssssss"
           inkscape:connector-curvature="0"
           id="path4275"
           d="m 13.925637,30.325762 c -1.00321,-1.10854 -1.94275,-2.84249 -2.08786,-3.85323 -0.18559,-1.29268 -1.27534,-1.93504 -3.6743899,-2.16589 -4.17976,-0.40219 -6.91055,-2.70473 -6.91055,-5.82681 0,-2.39976 3.15084,-6.34501 5.06739,-6.34501 0.62462,0 2.91596,-1.74324 2.53118,-2.9555405 -0.88113,-2.7762 3.3020799,-4.2489601 5.0982799,-4.9560701 1.40149,-0.55172 2.38681,0.0828 4.8245,-1.07243 1.82283,-0.86383 4.15882,-3.52713999 5.03395,-3.28644999 0.87513,0.2407 2.95751,-0.59708 4.19539,-0.24125 1.49059,0.42846 3.2313,-0.0513 5.15437,-1.42065001 3.58918,-2.55573 6.11001,-2.6027 10.88478,-0.20281 2.04059,1.02563001 5.64528,1.69050001 7.71016,2.53420001 6.42142,2.62377999 6.8,4.97919999 6.8,4.97919999 0.62263,1.3678501 0.64676,3.0916201 -0.45933,4.2769501 -1.94749,2.0870005 -1.95463,2.2412905 -0.22592,4.8796305 0,0 0.2465,1.65095 0.10577,2.45932 -0.16276,0.93489 -1.07633,2.63553 -1.07633,2.63553 -1.51565,1.30371 -3.74312,2.43891 -4.94995,2.52268 -1.20683,0.0838 -2.67934,0.20365 -3.27223,0.26638 -0.5929,0.0627 -2.58614,1.38308 -4.42944,2.93411 -2.84944,2.39764 -4.03604,2.75882 -7.922,2.41129 -3.42147,-0.30598 -5.30177,0.0949 -7.47894,1.59444 -4.30322,2.96393 -12.57229,3.42531 -14.91883,0.83241 z m 12.32843,-4.34997 c 1.60613,-1.18746 2.68635,-2.53746 2.40049,-3 -0.72523,-1.17344 -5.15193,-1.05416 -5.90172,0.15903 -0.33992,0.55 -1.71648,1 -3.05902,1 -2.29809,0 -3.27409,1.83356 -1.77431,3.33333 1.34931,1.34931 5.49504,0.60699 8.33456,-1.49236 z m 6.99877,-3.30579 c 0,-2.97024 2.56531,-4.53518 7.43426,-4.53518 2.9369,0 3.56574,-0.36431 3.56574,-2.06574 0,-1.13616 0.44054,-2.88891 0.97899,-3.895 0.70477,-1.31688 0.58262,-2.1582 -0.43608,-3.0036505 -2.04131,-1.69414 -5.52094,0.33239 -4.86667,2.8343305 0.95394,3.64786 -10.09625,7.7333 -11.2165,4.06492 -1.04973,-3.43744 -1.3135,-0.4722 -2.55601,0.65226 -1.04374,0.94458 -3.13657,1.68574 -4.65072,1.64703 -1.51416,-0.0387 -4.10301,1.01554 -5.75301,2.34277 -3.54759,2.85362 -1.72666,3.25139 3.9762,0.86858 5.35323,-2.23673 10.93153,-1.59521 11.34335,1.3045 0.43207,3.04228 2.18045,2.87004 2.18045,-0.21482 z m 6.06574,0.42964 c 2.90192,-1.55306 2.36149,-3.10542 -0.81574,-2.3432 -3.40669,0.81727 -3.61049,0.98608 -2.79112,2.31185 0.81739,1.32256 1.18819,1.32578 3.60686,0.0314 z m -26.63084,-3.94007 c 3.53009,-1.34214 3.36761,-4.02475 -0.24377,-4.02475 -3.3864399,0 -6.7715299,2.25187 -5.7848899,3.8483 0.87023,1.40806 2.65212,1.46021 6.0286599,0.17645 z m 40.41695,-1.91202 c 1.62884,-1.03218 -2.17199,-4.11273 -5.07436,-4.11273 -1.74373,0 -2.045836,3.171752 -1.11082,4.33333 1.293617,1.607072 4.56855,0.80383 6.18518,-0.2206 z m -29.12761,-2.78404 c 0.24807,-0.74511 -0.35856,-0.97557 -1.66714,-0.63337 -1.1314,0.29587 -2.0571,0.96845 -2.0571,1.49464 0,1.32759 3.24537,0.57706 3.72424,-0.86127 z m 12.5008,-1.21613 c 0.39877,-0.36445 -0.11453,-1.18696 -1.14066,-1.82779 -2.23842,-1.39792 -5.8702,0.63473 -4.653,2.6042 0.70714,1.14417 4.20515,0.6754 5.79366,-0.77641 z m -12.22905,-1.90307 c 4.10796,-0.57077 8.23938,-3.0196405 7.39615,-4.3840205 -0.68928,-4.0787201 -1.75301,-0.9309501 -2.81784,0.0327 -1.27296,1.15201 -3.77558,1.42124 -5.74602,1.02715 -2.28795,-0.45759 -2.07611,0.7664 -3.95131,2.8252005 -2.12149,2.32924 -2.16201,2.52241 -0.37697,1.79723 1.1,-0.44689 3.57319,-1.0311 5.49599,-1.29826 z m -7.85677,-2.1762205 c 1.88628,-1.57144 2.02548,-1.97342 0.69257,-2 -2.35108,-1.0261701 -4.83179,1.07912 -4.83179,2.57372 0,1.9298305 1.36039,1.7412705 4.13922,-0.57372 z m 37.36078,-2.03327 c 0.42378,-0.78425 0.68578,-1.5623201 -0.095,-2.1276201 -0.85057,-0.61583 -2.92858,-0.23429 -4.17963,-0.36465 -3.03006,-0.31574 -3.98489,1.46372 -1.68701,3.1439701 2.51755,1.84089 4.45589,2.13482 5.96164,-0.6517 z m -12.497,-2.2500001 c 3.48024,-4.29405999 -0.77432,-6.29092 -5.49387,-2.57852 -2.60651,2.05028 -2.65919,2.24563 -0.94373,3.5 2.59939,1.9007201 4.35379,1.6495901 6.4376,-0.92148 z m -13.28923,-0.37268 c 0.50364,-1.53642 -2.945,-1.94145 -4.62944,-1.06165 -1.48027,0.77316 -1.79144,1.20905 -1.08433,1.95075 0.86991,0.9124601 5.27831,0.43935 5.71377,-0.8891 z"
           style="fill:#ff0000;fill-opacity:1" />
      </g>
      <g
         inkscape:transform-center-y="-1.4611001"
         inkscape:transform-center-x="3.1362229"
         transform="matrix(-0.51451914,0.48565429,-0.47360841,-0.40478601,905.64948,-100.72251)"
         id="g4416">
        <path
           style="fill:#5170bb;fill-opacity:1"
           d="m 582.45708,156.51667 c -1.11128,-1.89533 -0.20522,-3.27811 0.94351,-3.90365 1.04725,-0.57028 1.56064,-1.19966 1.56064,-1.19966 l 4.55931,-2.91759 c 0,0 -0.2506,-1.94206 -0.0858,-3.40334 0.23444,-2.07887 1.27823,-3.96706 3.41557,-3.04025 2.69601,2.48125 3.2346,6.3065 5.36304,9.89673 7.74526,13.06463 3.33005,10.4453 0.4249,9.47261 -3.80823,-1.27504 -7.47923,-2.43269 -11.2098,-3.72174 -1.64442,-0.24274 -3.7964,0.31509 -4.97137,-1.18307 z"
           id="path4421"
           inkscape:connector-curvature="0"
           sodipodi:nodetypes="csccscssccc"
           inkscape:transform-center-x="-7.5722088"
           inkscape:transform-center-y="-22.62001" />
        <path
           style="fill:#5170bb;fill-opacity:1"
           d="m 541.75989,103.46873 c 1.1113,1.89535 0.20522,3.27813 -0.9435,3.90364 -1.04724,0.57028 -1.56063,1.19966 -1.56063,1.19966 l -4.55931,2.91759 c 0,0 0.25061,1.94207 0.0858,3.40337 -0.23445,2.07884 -1.27825,3.96705 -3.41557,3.04023 -2.69602,-2.48125 -3.23462,-6.3065 -5.36305,-9.89671 -7.74526,-13.064636 -3.33005,-10.445306 -0.42489,-9.472608 3.80822,1.27502 7.4792,2.432658 11.20979,3.721718 1.64443,0.24276 3.7964,-0.3151 4.97138,1.18307 z"
           id="path4410"
           inkscape:connector-curvature="0"
           sodipodi:nodetypes="csccscssccc"
           inkscape:transform-center-x="8.7541135"
           inkscape:transform-center-y="28.892808" />
        <path
           style="fill:#5170bb;fill-opacity:1"
           d="m 549.73477,123.4117 c -9.78978,-7.25317 -19.3646,-14.87929 -29.73605,-21.25564 -7.71706,-5.119552 -15.7625,-9.996353 -22.41675,-16.51224 -2.79079,-2.677184 0.92887,-8.99048 3.16596,-3.573923 4.48405,4.689202 10.51558,8.028376 15.71719,12.094985 5.83756,3.166831 11.1976,7.288448 16.76462,10.939458 7.99425,5.62132 15.07248,12.62008 23.44064,17.7048 1.86688,1.13436 4.85369,4.64229 6.6725,5.85223 4.12521,2.74421 4.604,2.49992 10.32953,6.86941 10.88336,8.0144 16.61424,14.23333 27.24809,22.59608 2.06241,2.92845 23.05032,17.08557 23.29896,20.91013 -0.78683,6.03038 -11.57926,-3.80879 -13.47814,-6.53818 -12.59206,-10.79705 -31.89403,-26.53875 -44.95323,-36.76393 -5.31149,-4.15883 -10.63296,-8.30728 -16.05332,-12.32318 z"
           id="path4412"
           inkscape:connector-curvature="0"
           sodipodi:nodetypes="scccccssccccss"
           inkscape:transform-center-x="-42.594222"
           inkscape:transform-center-y="32.473956" />
      </g>
      <path
         inkscape:transform-center-y="5.8182476"
         inkscape:transform-center-x="8.4715205"
         sodipodi:nodetypes="zzzzzzzzzzzzzzzzzcccccccccc"
         inkscape:connector-curvature="0"
         id="path4277"
         d="m 484.2144,143.76154 c -1.35097,-0.60705 -2.50008,-1.59895 -3.33773,-2.70306 -0.83762,-1.10414 -1.20095,-2.39342 -1.59493,-3.6905 -0.39401,-1.29707 -0.88718,-2.77601 -0.74393,-4.04526 0.14325,-1.26927 0.82722,-2.00591 1.40447,-3.26129 0.57725,-1.25537 0.91672,-2.58204 1.98584,-3.47187 1.06908,-0.88984 2.1805,-1.57357 3.57122,-1.75658 1.39072,-0.18298 3.18595,-0.12106 4.80984,0.054 1.62391,0.17502 3.54232,0.66506 4.88669,1.00844 1.34438,0.34339 1.78075,0.21106 3.18984,0.97503 1.40911,0.76398 4.18257,2.35628 4.81681,4.03236 0.63423,1.67605 0.008,2.80899 -0.66941,4.42008 -0.67607,1.61109 -2.38315,3.62437 -3.61152,4.8071 -1.22836,1.18276 -2.38932,1.81277 -3.46632,2.40462 -1.07703,0.59186 -1.78692,0.88131 -2.90762,1.22414 -1.12066,0.34282 -2.39206,0.72995 -3.80329,0.75206 -1.41122,0.022 -3.17901,-0.14217 -4.52996,-0.74923 z m 5.76652,-5.0449 c 1.24626,-0.29193 2.71758,-0.42517 3.6095,-1.41408 1.38006,-0.62739 2.43501,-1.60899 3.38148,-2.76803 0.74015,-0.71134 1.97812,-1.73876 0.69484,-2.5526 -0.77096,-1.01688 -2.13285,-0.99631 -3.24036,-1.38031 -1.59129,-0.45233 -3.27713,-0.57335 -4.89494,-0.19392 -1.7362,0.35254 -3.20538,1.42247 -4.68206,2.33749 -0.91865,0.85255 -1.45456,2.57334 -0.33011,3.47871 0.86248,1.00008 1.76686,2.09668 3.13873,2.35753 0.74797,0.16685 1.57024,0.39064 2.32294,0.13521 z"
         style="fill:#0026ff;fill-opacity:1;stroke:#ffffff;stroke-width:0.1708034;stroke-opacity:1" />
      <g
         transform="matrix(1.2634561,0,0,1.263456,602.64573,76.216578)"
         id="g4704">
        <path
           sodipodi:nodetypes="sssssssscsssssssasccsssscc"
           inkscape:connector-curvature="0"
           id="path4706"
           d="m 12.6728,34.084273 c -1.00321,-1.10854 -1.94275,-2.84249 -2.08786,-3.85323 C 10.39935,28.938363 9.3096,28.296003 6.91055,28.065153 2.73079,27.662963 0,25.360423 0,22.238343 c 0,-2.39976 3.15084,-6.34501 5.06739,-6.34501 0.62462,0 2.91596,-1.74324 2.53118,-2.95554 -0.88113,-2.7762 3.30208,-4.2489601 5.09828,-4.9560701 1.40149,-0.55172 2.38681,0.0828 4.8245,-1.07243 1.82283,-0.86383 4.15882,-3.52714 5.03395,-3.28645 0.87513,0.2407 2.95751,-0.59708 4.19539,-0.24125 1.49059,0.42846 3.2313,-0.0513 5.15437,-1.42065 3.58918,-2.55572999 6.11001,-2.60269999 10.88478,-0.20281 2.04059,1.02563 5.64528,1.6905 7.71016,2.5342 6.42142,2.62378 6.8,4.9792 6.8,4.9792 0.62263,1.3678501 0.64676,3.0916201 -0.45933,4.2769501 -1.94749,2.087 -1.95463,2.24129 -0.22592,4.87963 0,0 0.2465,1.65095 0.10577,2.45932 -0.16276,0.93489 -1.07633,2.63553 -1.07633,2.63553 -1.51565,1.30371 -3.74312,2.43891 -4.94995,2.52268 -1.20683,0.0838 -2.67934,0.20365 -3.27223,0.26638 -0.5929,0.0627 -2.58614,1.38308 -4.42944,2.93411 -2.84944,2.39764 -4.03604,2.75882 -7.922,2.41129 -3.42147,-0.30598 -5.30177,0.0949 -7.47894,1.59444 -4.30322,2.96393 -12.57229,3.42531 -14.91883,0.83241 z M 21,9.1597529 c -14,17.7468381 -7,8.8734191 0,0 z"
           style="fill:#ffffff;fill-opacity:1" />
        <path
           inkscape:connector-curvature="0"
           style="fill:#0026ff;fill-opacity:1"
           d="m 310.41992,75.556641 c -2.59933,0.04843 -4.9682,1.056847 -7.75195,3.039062 -2.98305,2.124126 -5.68195,2.869702 -7.99414,2.205078 -1.92019,-0.551961 -5.15227,0.746419 -6.50977,0.373047 -1.35749,-0.373356 -4.98103,3.75769 -7.80859,5.097656 -3.78133,1.791985 -5.30844,0.808239 -7.48242,1.664063 -2.78626,1.096864 -9.27501,3.381079 -7.90821,7.6875 0.59687,1.880511 -2.95882,4.585933 -3.92773,4.585933 -2.97294,0 -7.85938,6.11931 -7.85938,9.8418 0,4.84295 4.23514,8.41519 10.71875,9.03906 3.72139,0.3581 5.41134,1.35418 5.69922,3.35938 0.2251,1.56785 1.68407,4.257 3.24024,5.97656 3.35449,3.70667 14.50116,3.38206 21.45508,-0.28906 -0.0947,1.08958 0.28344,2.33983 0.59765,3.44531 0.32871,1.15647 0.63029,2.30637 1.35547,3.29883 0.72519,0.99244 1.72771,1.88939 2.91602,2.44922 1.1883,0.55985 2.75408,0.73333 4.00586,0.73633 1.25177,0.003 2.38552,-0.31933 3.38476,-0.60547 0.99925,-0.28615 1.63316,-0.53139 2.59766,-1.03906 0.96448,-0.50766 2.00321,-1.04889 3.11133,-2.07813 1.10812,-1.02923 2.65411,-2.78721 3.27929,-4.20508 0.26642,-0.60424 0.50585,-1.12828 0.67188,-1.65039 0.69031,0.83103 1.56542,1.5731 2.59179,2.05664 1.1883,0.55985 2.75408,0.73333 4.00586,0.73633 1.25177,0.003 2.38553,-0.31933 3.38477,-0.60547 0.99925,-0.28615 1.63316,-0.53138 2.59766,-1.03906 0.96448,-0.50766 2.0032,-1.04889 3.11132,-2.07813 1.10812,-1.02923 2.65412,-2.7872 3.2793,-4.20507 0.62515,-1.41787 1.19975,-2.41182 0.66406,-3.90821 -0.50472,-1.40984 -2.66471,-2.76233 -3.95117,-3.50195 1.8879,-0.16997 5.27723,-1.90444 7.59766,-3.90039 0,0 1.41745,-2.6377 1.66992,-4.08789 0.2183,-1.25394 -0.16406,-3.81446 -0.16406,-3.81446 -2.68157,-4.09257 -2.67133,-4.332969 0.34961,-7.570308 1.71575,-1.838675 1.67871,-4.512966 0.71289,-6.634765 0,0 -0.58797,-3.652668 -10.54883,-7.722656 -3.20303,-1.308742 -8.79364,-2.340691 -11.95899,-3.931641 -3.70329,-1.861346 -6.53347,-2.773041 -9.13281,-2.724609 z m 3.625,6.384765 c 3.24635,0.08699 4.55963,2.858413 1.18555,7.021485 -3.23239,3.988225 -5.95417,4.376117 -9.98633,1.427734 -2.66101,-1.945769 -2.58031,-2.247355 1.46289,-5.427734 2.74535,-2.159493 5.39008,-3.073677 7.33789,-3.021485 z m -22.98437,4.087891 c 2.13648,0.06035 4.04296,0.865917 3.55468,2.355469 -0.67548,2.060681 -7.51388,2.794307 -8.86328,1.378906 -1.09686,-1.15052 -0.61454,-1.828024 1.68164,-3.027344 0.97984,-0.511777 2.34506,-0.743239 3.62696,-0.707031 z m 36.08007,2.501953 c 0.26817,0.0061 0.54999,0.02408 0.84376,0.05469 1.94061,0.202213 5.16302,-0.388865 6.48242,0.566406 1.21114,0.876889 0.8058,2.084258 0.14843,3.300781 -2.3357,4.322429 -5.34284,3.865341 -9.24804,1.009766 -3.34168,-2.443492 -2.24908,-5.022403 1.77343,-4.931641 z m -28.23632,0.492188 c 0.53377,-0.01034 1.01701,0.785622 1.41797,3.158203 1.30801,2.116416 -5.10238,5.915407 -11.47461,6.800781 -2.98264,0.414416 -6.81713,1.320458 -8.52344,2.013668 -2.76894,1.1249 -2.70686,0.82404 0.58398,-2.789059 2.9088,-3.193595 2.57986,-5.090669 6.12891,-4.380859 3.05653,0.611309 6.93946,0.193239 8.91406,-1.59375 1.03235,-0.934254 2.0635,-3.191746 2.95313,-3.208984 z m -23.21485,3.058593 c 0.67126,-0.0048 1.36307,0.123415 2.04688,0.421875 2.0676,0.04123 1.85176,0.663957 -1.07422,3.101563 -4.3105,3.590995 -6.42188,3.884163 -6.42188,0.890625 0,-1.88371 2.54045,-4.393182 5.44922,-4.414063 z m 42.37305,2.560547 c 0.93545,0.01421 1.86659,0.309813 2.6582,0.966797 1.5802,1.311456 1.76902,2.617422 0.67578,4.660155 -0.83524,1.56064 -1.51757,4.27861 -1.51757,6.04102 0,2.63924 -0.97556,3.20507 -5.53125,3.20507 -7.55268,0 -11.53125,2.42775 -11.53125,7.03516 0,4.78521 -2.71259,5.05119 -3.38282,0.33203 -0.63881,-4.49801 -9.29181,-5.49303 -17.5957,-2.02343 -8.84623,3.69619 -11.67096,3.07885 -6.16797,-1.34766 2.55947,-2.05879 6.57508,-3.69284 8.92383,-3.63281 2.34874,0.06 5.5958,-1.08947 7.21484,-2.55469 1.92738,-1.74426 2.33651,-6.34385 3.96485,-1.01172 1.73772,5.69036 18.87818,-0.64811 17.39844,-6.30664 -0.76118,-2.910744 2.08427,-5.405901 4.89062,-5.363282 z m -14.87109,3.742188 c 0.98692,-0.03839 1.98936,0.172733 2.85742,0.714843 1.59172,0.994051 2.3881,2.268651 1.76953,2.833981 -2.46409,2.25204 -7.88942,2.97991 -8.98633,1.20508 -1.41608,-2.29127 1.39859,-4.638722 4.35938,-4.753904 z m 22.54687,3.375004 c 4.50214,0 10.39774,4.77779 7.8711,6.3789 -2.50771,1.58909 -8.14575,1.78981 -9.59376,0.3418 -2.15296,-2.15296 -0.9822,-6.7207 1.72266,-6.7207 z m -38.58203,0.8457 c 1.10297,-0.0692 1.56009,0.34799 1.27148,1.21484 -0.74282,2.23113 -5.77734,3.39529 -5.77734,1.33594 0,-0.81622 1.43639,-1.85941 3.19141,-2.31836 0.50746,-0.1327 0.94679,-0.20935 1.31445,-0.23242 z m -16.61914,2.25586 c 5.60195,0 5.85476,4.16222 0.37891,6.24414 -5.23767,1.99136 -8.00167,1.91073 -9.35157,-0.27344 -1.53047,-2.47637 3.71964,-5.9707 8.97266,-5.9707 z m 42.75391,8.41015 c 2.72248,0.0308 2.59101,1.98793 -1.06641,3.94532 -3.75182,2.00783 -4.32777,2.00271 -5.5957,-0.0488 -1.271,-2.05653 -0.95436,-2.3182 4.33007,-3.58594 0.9241,-0.22169 1.70377,-0.31764 2.33204,-0.31055 z m -22.17188,2.48829 c 2.00267,-0.054 4.00197,0.3555 4.56445,1.26562 0.44343,0.71749 -1.23319,2.81037 -3.72461,4.65234 -4.40464,3.2565 -10.83469,4.4075 -12.92773,2.31446 -2.32645,-2.32643 -0.81283,-5.16992 2.75195,-5.16992 2.08254,0 4.21686,-0.69763 4.74414,-1.55079 0.58154,-0.94094 2.58913,-1.45775 4.5918,-1.51171 z m 33.69922,2.87695 c 1.0935,-0.0733 2.1971,0.0805 3.25,0.40039 0.97598,0.35816 2.18411,0.36332 2.85156,1.27734 1.125,0.74214 0.0114,1.63298 -0.65625,2.25196 -0.85777,1.0127 -1.80919,1.86603 -3.04297,2.40039 -0.80668,0.86271 -2.11287,0.95825 -3.22265,1.19726 -0.67152,0.2145 -1.39799,0.002 -2.0586,-0.1582 -1.21238,-0.25317 -1.9972,-1.24005 -2.74609,-2.14063 -0.66048,-0.55166 -0.64186,-1.41452 -0.3125,-2.14843 0.32218,-0.25678 0.63494,-0.49925 0.98633,-0.79492 0.53265,-0.4482 1.06831,-0.86428 1.60156,-1.27735 0.71458,-0.38564 1.45741,-0.7091 2.26172,-0.85742 0.36016,-0.0777 0.72339,-0.12594 1.08789,-0.15039 z m -19.64258,6.78516 c 1.0935,-0.0734 2.1971,0.0825 3.25,0.40234 0.97598,0.35816 2.18411,0.36137 2.85156,1.27539 1.125,0.74214 0.0114,1.63297 -0.65625,2.25195 -0.85777,1.0127 -1.80918,1.86603 -3.04297,2.40039 -0.80668,0.86271 -2.11482,0.95826 -3.2246,1.19727 -0.67152,0.2145 -1.39603,0.002 -2.05664,-0.1582 -1.21238,-0.25317 -1.99721,-1.24005 -2.7461,-2.14063 -0.98268,-0.82078 -0.48054,-2.33675 0.34766,-3.07812 1.32405,-0.78787 2.64425,-1.71311 4.18945,-1.99805 0.36017,-0.0777 0.72339,-0.1279 1.08789,-0.15234 z"
           transform="matrix(0.64466527,0,0,0.64466527,-163.21467,-48.707377)"
           id="path4708" />
      </g>
      <path
         style="fill:#000000;stroke:#000000;stroke-width:1.26125741;stroke-miterlimit:4;stroke-dasharray:none;stroke-opacity:1"
         d="m 447.16989,83.902996 c -0.41183,-0.208782 -0.47139,-0.300796 -0.54004,-0.834098 -0.0965,-0.749799 -0.17619,-1.134717 -0.7352,-3.550978 -1.34895,-5.830804 -1.21836,-9.680066 0.4334,-12.774936 1.33196,-2.49567 1.7443,-3.353991 1.7443,-3.630944 0,-0.377258 -0.41718,-1.327587 -0.6777,-1.543795 -0.28195,-0.233992 -0.6029,-1.31343 -0.5057,-1.700729 0.27272,-1.086591 1.6386,-1.568364 2.54683,-0.898299 0.63824,0.470883 0.831,0.340634 2.02772,-1.370163 1.30454,-1.864936 2.28909,-2.457353 3.78878,-2.279737 0.56701,0.06716 1.96104,0.644668 2.13169,0.883111 0.0441,0.06161 0.13817,0.07615 0.20908,0.03232 0.071,-0.0438 0.14785,-0.03593 0.17103,0.01757 0.0233,0.05349 0.35298,0.291762 0.73293,0.529492 4.41256,2.761025 4.61765,7.960016 0.38459,9.749448 -0.50281,0.212543 -1.63729,0.941531 -2.26858,1.457701 -0.64985,0.531364 -0.61665,0.50861 -1.63277,1.118625 -0.97438,0.584952 -2.05968,1.044285 -2.97986,1.261181 -0.83729,0.19735 -1.28994,0.702832 -1.29297,1.443837 -0.004,0.871929 -0.36742,3.915938 -0.75591,6.323718 -0.0725,0.449016 -0.18386,1.171944 -0.2476,1.606506 -0.0638,0.43456 -0.15062,0.846269 -0.19304,0.914923 -0.0424,0.06865 -0.13133,0.700908 -0.19759,1.405025 -0.13548,1.439747 -0.31227,1.755654 -1.10601,1.976139 -0.53161,0.147679 -0.45929,0.15716 -1.03738,-0.135932 z m 0.61464,-7.179634 c 0.42753,-0.919194 0.92181,-4.98979 0.73716,-6.070822 -0.0552,-0.323289 -0.0152,-0.825641 0.10829,-1.357973 0.26256,-1.132075 0.25033,-1.620339 -0.0473,-1.889713 -1.21381,-1.098497 -2.14509,6.271938 -1.19328,9.444101 0.0729,0.242648 0.25012,0.186296 0.39517,-0.125593 z m 4.49536,-8.921348 c 0.43842,-0.157278 3.5398,-1.965806 3.95713,-2.307531 0.15579,-0.127583 0.54434,-0.454871 0.86343,-0.727314 0.31909,-0.272443 0.68898,-0.5833 0.822,-0.690789 1.14763,-0.92751 1.5585,-1.774626 1.29834,-2.676851 -0.37558,-1.302414 -3.06127,-3.243493 -4.53617,-3.278501 l -0.74194,-0.01761 -0.79889,0.879184 c -0.4394,0.483553 -0.7994,0.924006 -0.80001,0.978777 -0.002,0.05478 -0.22157,0.393889 -0.49104,0.753592 -1.14804,1.532438 -1.31993,2.313246 -1.01918,4.629699 0.066,0.507444 0.12152,1.201581 0.12366,1.542525 0.005,0.691763 0.39287,1.275675 0.75145,1.129335 0.10693,-0.04362 0.36398,-0.140176 0.57122,-0.214522 z"
         id="path4721"
         inkscape:connector-curvature="0"
         sodipodi:nodetypes="ccsssscssssssssssscsscssccccsscscccsscscsscss" />
      <path
         sodipodi:nodetypes="scscsssscsssccsscscsssssscscssccscsccscsssssccccsssssssccssscssccsscc"
         inkscape:connector-curvature="0"
         id="path4723"
         d="m 468.96872,181.29471 -0.44125,-0.46785 0.0781,-1.52691 c 0.0429,-0.83978 0.0964,-1.75296 0.11876,-2.02928 0.0224,-0.2763 0.13676,-1.6893 0.25422,-3.13995 0.36457,-4.50274 0.38004,-7.15179 0.0498,-8.54134 -0.39304,-1.65409 -0.13522,-2.1973 1.04293,-2.1973 0.61176,0 1.04025,-0.24663 1.30346,-0.75024 0.12732,-0.24362 0.4725,-0.79294 0.76706,-1.22073 0.29453,-0.42778 0.53553,-0.8277 0.53553,-0.88869 0,-0.0609 0.14129,-0.24367 0.31399,-0.4059 0.17269,-0.16223 0.31399,-0.34165 0.31399,-0.39869 0,-0.057 0.0989,-0.20871 0.2198,-0.33704 1.34764,-1.43077 1.71088,-1.79605 2.29983,-2.31268 0.37571,-0.32958 0.77266,-0.68282 0.88207,-0.78498 0.10941,-0.10218 0.25607,-0.18575 0.32592,-0.18575 0.0698,0 0.23168,-0.11569 0.35963,-0.25707 0.23248,-0.25689 0.42752,-0.35828 1.65076,-0.85829 1.06974,-0.43728 2.77669,-0.27863 3.82497,0.35546 0.23215,0.14044 0.50132,0.29344 0.59817,0.33999 0.63534,0.3054 1.53045,1.74648 1.78144,2.86807 0.23414,1.04623 0.0163,1.64639 -1.28409,3.53829 -0.19769,0.28761 -0.35943,0.57828 -0.35943,0.64595 0,0.0677 -0.0848,0.15555 -0.18841,0.19532 -0.10361,0.0398 -0.1884,0.1228 -0.1884,0.18452 0,0.40359 -1.87159,2.0166 -3.13771,2.70425 -0.24056,0.13062 -0.49489,0.30798 -0.56519,0.39411 -0.20697,0.2535 -1.57179,0.89294 -2.42601,1.1366 -0.43503,0.12411 -0.81987,0.27238 -0.85521,0.32953 -0.0352,0.0572 -0.17466,0.10391 -0.3097,0.10391 -0.13502,0 -0.34361,0.0505 -0.46359,0.11208 -0.56701,0.2914 -1.76846,0.40186 -2.2378,0.20577 -1.41086,-0.58952 -1.55402,-0.3243 -1.69275,3.13609 -0.0581,1.45066 -0.14093,3.25927 -0.1839,4.01916 -0.043,0.75986 -0.118,2.32873 -0.1667,3.48638 l -0.0885,2.10481 -0.37958,0.37957 c -0.61789,0.61791 -1.20873,0.6391 -1.7522,0.0628 z m 5.27864,-15.15317 c 0.27632,-0.12273 0.81325,-0.31934 1.19319,-0.43688 0.37993,-0.11756 0.74448,-0.26207 0.8101,-0.32116 0.0657,-0.0591 0.21328,-0.10745 0.32813,-0.10745 0.11484,0 0.42217,-0.16956 0.68294,-0.37679 0.26078,-0.20724 0.52037,-0.3768 0.57689,-0.3768 0.23462,0 1.74765,-1.07419 2.6496,-1.88113 0.83161,-0.74401 2.06699,-2.39659 2.22832,-2.98086 0.50502,-1.82915 -1.77332,-3.47828 -3.38244,-2.44825 -0.17271,0.11054 -0.4922,0.28868 -0.71002,0.39585 -0.82845,0.40767 -3.30424,2.77941 -3.56929,3.4193 -0.0808,0.19532 -0.18998,0.35513 -0.24237,0.35513 -0.11855,0 -1.13024,1.32882 -1.13024,1.48452 0,0.0625 -0.16955,0.32708 -0.37679,0.58785 -0.20723,0.26078 -0.3768,0.55114 -0.3768,0.64526 0,0.0941 -0.0456,0.17113 -0.10142,0.17113 -0.10772,0 -0.45423,0.7529 -0.5629,1.22309 -0.1859,0.80438 0.86049,1.14586 1.9831,0.64719 z m 14.2594,-12.95473 c -1.25409,-0.38375 -2.25505,-0.45188 -8.16388,-0.55575 -6.58543,-0.11575 -9.70948,-0.30062 -10.86156,-0.64275 -1.74674,-0.51872 -1.39287,-2.68952 0.43844,-2.68952 0.35146,0 0.69272,0.0511 0.75834,0.11353 0.22261,0.21186 2.22751,0.34507 6.96442,0.46278 3.97736,0.0988 3.73341,0.0964 5.22159,0.0526 0.63985,-0.0188 1.24996,0.0256 1.39123,0.10114 0.1384,0.0741 0.55812,0.1716 0.93273,0.21674 0.91212,0.1099 2.14784,0.49737 3.06748,0.96182 0.41448,0.20932 1.02149,0.46097 1.34892,0.55924 0.69007,0.20707 0.89172,0.61114 0.58171,1.16574 -0.20113,0.35985 -0.95943,0.4747 -1.67942,0.25437 z"
         style="fill:#000000;stroke:#000000;stroke-width:1.26125741;stroke-miterlimit:4;stroke-dasharray:none;stroke-opacity:1" />
      <path
         style="fill:#000000;stroke:#000000;stroke-width:1.37613821;stroke-miterlimit:4;stroke-dasharray:none;stroke-opacity:1"
         d="m 683.1835,184.66215 c -0.63037,-0.10193 -1.22487,-1.69393 -1.04562,-2.7734 0.17925,-1.0795 0.16895,-2.20047 0.23229,-3.36536 0.0633,-1.16489 -0.2233,-2.36969 -0.26995,-3.60909 -0.0466,-1.23939 -0.26553,-2.60284 -0.39463,-3.74353 -0.12907,-1.14066 0.96952,-2.61761 1.91762,-1.48592 0.94809,1.1317 1.04773,-1.07804 1.20004,-1.96664 0.15233,-0.88861 0.51376,-2.10309 0.95943,-3.0808 0.44568,-0.9777 1.06976,-2.33014 2.31272,-2.37466 1.24296,-0.0445 3.06201,0.48133 4.05814,1.44134 0.99613,0.95999 1.61873,1.62036 2.37254,2.85087 0.53904,0.87993 1.11158,2.52279 1.52204,3.46956 0.82292,1.89821 1.26934,4.31541 1.73998,5.95793 0.47062,1.64249 0.25073,-0.12997 0.43702,-1.28931 0.18628,-1.15931 0.62503,-3.88097 1.02571,-5.63208 0.4007,-1.7511 0.46002,-3.71618 0.73619,-4.98593 0.27618,-1.26974 -0.33851,-3.31129 0.84073,-3.07918 1.17922,0.23211 1.70146,0.60778 1.62524,3.11525 -0.0762,2.50747 -0.97108,8.14545 -1.52474,10.93233 -0.55367,2.78691 -0.66403,5.79779 -0.66403,5.79779 0,0 -0.36319,2.98681 -1.46119,3.81521 -1.09801,0.82841 -2.019,0.34013 -2.10856,-1.42721 -0.0895,-1.76734 -0.54067,-3.84773 -1.04401,-5.82864 -0.50335,-1.9809 -1.32804,-4.32731 -2.10269,-5.83398 -0.77466,-1.50664 -1.19317,-3.24903 -1.9525,-4.28266 -0.75935,-1.03363 -0.99386,-1.02847 -1.76309,-1.18844 -0.76923,-0.15999 -0.5396,-0.13938 -1.06291,0.40637 -0.52331,0.54577 -1.10512,1.61662 -1.35743,2.72212 -0.2523,1.1055 -0.42256,2.46612 -0.69466,3.68668 -0.22929,1.02853 -0.59428,2.56216 -0.7896,3.59766 -0.21564,1.14318 -0.41929,2.9282 -0.41929,2.9282 l -0.2899,3.14448 c 0,0 -0.5857,2.22353 -2.03488,2.08104 0,0 0.63035,0.10189 -10e-6,0 z"
         id="path4725"
         inkscape:connector-curvature="0"
         sodipodi:nodetypes="zzzzzzzzcccczzzzzzzczzzzzzzzsscccz" />
      <path
         inkscape:connector-curvature="0"
         style="fill:#000000;stroke:#000000;stroke-width:1.26125741;stroke-miterlimit:4;stroke-dasharray:none;stroke-opacity:1"
         d="m 665.0018,45.036713 c -0.24875,0.0039 -0.48759,0.05221 -0.69201,0.151129 -2.26607,1.096506 -2.2186,4.589176 -2.66624,7.066478 -0.1007,0.557172 -0.45412,1.365789 0.006,1.69742 0.35199,0.254363 0.89979,-0.133255 1.23927,-0.404072 0.3805,-0.303541 0.51949,-0.823753 0.75087,-1.251986 0.50941,-0.942759 0.96981,-1.912255 1.39993,-2.893724 0.12812,-0.29235 0.19734,-0.611408 0.35158,-0.890866 0.35196,-0.637756 0.96705,-1.111368 1.29333,-1.762642 0.11451,-0.22852 0.34152,-0.507057 0.22273,-0.733374 -0.31659,-0.603217 -1.15797,-0.989756 -1.90423,-0.978363 z m -9.4225,1.293348 c -0.90514,0.03769 -0.3806,1.906961 -0.63951,3.097351 -0.27617,1.269749 -0.33586,3.234569 -0.73656,4.985669 -0.40068,1.751096 -0.83979,4.472232 -1.02609,5.631548 -0.18627,1.159315 0.0332,2.931075 -0.43747,1.288574 -0.47063,-1.642506 -0.91584,-4.059443 -1.73878,-5.957668 -0.41045,-0.946764 -0.98338,-2.589682 -1.52243,-3.469606 -0.75381,-1.230509 -1.3758,-1.890777 -2.37193,-2.850772 -0.99612,-0.959999 -2.81526,-1.485823 -4.05822,-1.441294 -1.24295,0.04453 -1.86739,1.397402 -2.31307,2.375113 -0.44567,0.977707 -0.80693,2.192837 -0.95926,3.081443 -0.15231,0.8886 -0.25298,3.097959 -1.20108,1.966268 -0.9481,-1.131687 -2.04603,0.345167 -1.91696,1.485838 0.12909,1.140675 0.34786,2.503828 0.39452,3.743229 0.0466,1.239399 0.33374,2.44471 0.27045,3.609598 -0.0634,1.164889 -0.053,2.285126 -0.23226,3.364611 -0.17925,1.07949 0.41483,2.6725 1.04517,2.774413 1.44918,0.142499 2.03468,-2.0824 2.03468,-2.0824 l 0.28954,-3.143486 c 0,0 0.20435,-1.785538 0.41997,-2.928722 0.19533,-1.035505 0.55978,-2.56835 0.78906,-3.596871 0.2721,-1.220559 0.44288,-2.582049 0.69518,-3.687551 0.25231,-1.105501 0.83368,-2.176152 1.35699,-2.721914 0.52332,-0.545759 0.29344,-0.565646 1.06267,-0.405663 0.76923,0.15998 1.0049,0.154727 1.76424,1.188352 0.75935,1.033623 1.17728,2.775868 1.95195,4.282521 0.77466,1.506654 1.59974,3.852682 2.10309,5.833582 0.50333,1.980906 0.95401,4.061471 1.04358,5.828811 0.0895,1.767344 1.00985,2.255383 2.10785,1.426978 1.098,-0.828404 1.46198,-3.814818 1.46198,-3.814818 0,0 0.1097,-3.011695 0.66337,-5.798584 0.55366,-2.786891 1.44938,-8.424735 1.52561,-10.932201 0.0762,-2.507465 -0.44661,-2.88274 -1.62583,-3.11485 -0.0737,-0.01451 -0.1401,-0.02001 -0.20045,-0.0175 z"
         id="path4727" />
      <g
         transform="matrix(1.7559875,0,0,1.7559875,357.09395,-513.49139)"
         id="g4971">
        <g
           style="font-style:normal;font-variant:normal;font-weight:normal;font-stretch:normal;letter-spacing:normal;word-spacing:normal;text-anchor:start;fill:none;fill-opacity:1;fill-rule:evenodd;stroke:#000000;stroke-linecap:butt;stroke-linejoin:miter;stroke-miterlimit:10.43299961;stroke-dasharray:none;stroke-dashoffset:0;stroke-opacity:1"
           id="g4973"
           transform="matrix(0.35006798,0,0,-0.35006798,-61.261897,532.28834)"
           xml:space="preserve"
           stroke-miterlimit="10.433"
           font-style="normal"
           font-variant="normal"
           font-weight="normal"
           font-stretch="normal"
           font-size-adjust="none"
           letter-spacing="normal"
           word-spacing="normal"><path
             style="fill:#000000;stroke-width:0"
             inkscape:connector-curvature="0"
             d="m 478.19,431.11 0,0.31 -0.01,0.34 -0.02,0.36 -0.02,0.37 -0.03,0.39 -0.04,0.39 -0.04,0.41 -0.06,0.41 -0.07,0.42 -0.07,0.43 -0.09,0.42 -0.1,0.43 -0.12,0.42 -0.12,0.42 -0.14,0.41 -0.16,0.41 -0.17,0.4 -0.18,0.38 -0.2,0.37 -0.22,0.36 -0.23,0.34 -0.25,0.32 -0.28,0.3 -0.29,0.27 -0.31,0.25 -0.16,0.12 -0.17,0.1 -0.17,0.1 -0.18,0.1 -0.18,0.08 -0.19,0.08 -0.19,0.07 -0.2,0.06 -0.21,0.05 -0.21,0.05 -0.22,0.03 -0.22,0.02 -0.23,0.02 -0.23,0 -0.05,-1.09 c 2.44,0 2.73,-3.19 2.73,-6.03 0,-2.44 -0.39,-4.99 -1.59,-9.92 l -10.41,0 c 0.85,3.2 1.85,7.18 3.83,10.72 1.36,2.43 3.19,5.23 5.44,5.23 l 0.05,1.09 c -6.92,0 -14.6,-14.04 -14.6,-25.45 0,-4.69 1.44,-10.22 5.99,-10.22 l 0,1.1 c -1.66,0 -2.71,1.45 -2.71,6.07 0,2.1 0.3,4.99 1.6,9.86 l 10.37,0 c -0.54,-2.28 -1.59,-6.51 -3.5,-10.11 -1.73,-3.39 -3.62,-5.82 -5.76,-5.82 l 0,-1.1 c 7.01,0 14.59,14.3 14.59,25.46 z"
             id="path4975" /><path
             style="fill:#000000;stroke-width:0"
             inkscape:connector-curvature="0"
             d="m 504.84,422.36 0,0.05 0,0.05 0,0.05 0,0.05 0,0.05 0,0.05 0,0.04 0,0.05 -0.01,0.04 0,0.04 -0.01,0.04 0,0.03 -0.01,0.04 -0.01,0.03 -0.01,0.03 -0.01,0.03 -0.01,0.03 -0.01,0.02 -0.02,0.03 -0.01,0.02 -0.02,0.02 -0.02,0.02 -0.03,0.02 -0.02,0.01 -0.03,0.02 -0.03,0.01 -0.03,0.01 -0.03,0.01 -0.02,0 -0.02,0 -0.02,0.01 -0.02,0 -0.02,0 -0.02,0 -0.02,0 -0.02,0 c -0.14,0 -0.31,0 -0.59,-0.42 l -1.85,-2.66 c -1.47,1.47 -3.87,3.08 -7.22,3.08 -7.31,0 -13.34,-5.65 -13.34,-12.58 0,-7.07 6.14,-12.62 13.34,-12.62 6.18,0 10.14,4.61 10.14,8.86 0,0.37 -0.03,0.65 -0.59,0.65 -0.2,0 -0.55,0 -0.59,-0.45 -0.28,-5.61 -5.02,-7.8 -8.47,-7.8 -3.72,0 -10.1,2.27 -10.1,11.32 0,9.45 6.75,11.36 10.03,11.36 3.46,0 7.57,-2.3 8.47,-8.29 0.07,-0.42 0.38,-0.42 0.63,-0.42 0.62,0 0.62,0.21 0.62,0.91 z"
             id="path4977" /></g>      </g>
    </g>
  </g>
</svg>
